<?xml version="1.0" encoding="UTF-8" standalone="no"?>
<!-- Created with Inkscape (http://www.inkscape.org/) -->

<svg
   version="1.1"
   id="svg1"
   width="2268"
   height="2268"
   viewBox="0 0 2268 2268"
   sodipodi:docname="only_telescope.svg"
   inkscape:version="1.4.2 (ebf0e940d0, 2025-05-08)"
   xmlns:inkscape="http://www.inkscape.org/namespaces/inkscape"
   xmlns:sodipodi="http://sodipodi.sourceforge.net/DTD/sodipodi-0.dtd"
   xmlns="http://www.w3.org/2000/svg"
   xmlns:svg="http://www.w3.org/2000/svg">
  <defs
     id="defs1" />
  <sodipodi:namedview
     id="namedview1"
     pagecolor="#ffffff"
     bordercolor="#000000"
     borderopacity="0.25"
     inkscape:showpageshadow="2"
     inkscape:pageopacity="0.0"
     inkscape:pagecheckerboard="0"
     inkscape:deskcolor="#d1d1d1"
     inkscape:zoom="0.43077601"
     inkscape:cx="1128.1965"
     inkscape:cy="1138.6428"
     inkscape:window-width="2048"
     inkscape:window-height="1228"
     inkscape:window-x="0"
     inkscape:window-y="0"
     inkscape:window-maximized="1"
     inkscape:current-layer="g1">
    <inkscape:page
       x="0"
       y="0"
       inkscape:label="1"
       id="page1"
       width="2268"
       height="2268"
       margin="0"
       bleed="0" />
  </sodipodi:namedview>
  <g
     id="g1"
     inkscape:groupmode="layer"
     inkscape:label="1">
    <rect
       style="fill:#000000;fill-opacity:1"
       id="rect68"
       width="2268"
       height="2268"
       x="0"
       y="0" />
    <path
       id="path30"
       d="m 1367.0879,35.01279 c -14.5699,0 -29.2676,1.11803 -44.0466,3.46977 -81.0606,10.56015 -122.3827,94.0923 -114.1737,168.89095 -137.6716,106.7622 -274.28179,215.55234 -413.58042,319.7939 -56.87092,31.34361 -70.05002,94.27131 -98.65601,147.03801 -32.85268,50.41708 -55.91203,118.51508 -113.92379,144.02491 -75.92402,24.356 -109.42239,111.43023 -90.41758,184.74857 11.07096,49.5168 34.88143,95.1584 59.34884,139.2104 16.54099,33.643 39.1038,62.5677 65.19486,88.2029 l -9.12502,-17.1862 0.68014,-31.26 16.26204,-16.0075 c -2.31743,-2.0438 -3.32463,-5.2203 -15.45096,-27.9167 -29.0272,-40.8805 -1.23654,9.0539 -11.97726,-6.1914 -5.74157,-11.0787 -4.22253,-52.0215 -36.65103,-27.6588 5.2196,43.3251 -26.65139,12.7287 -30.70586,-15.1764 l -3.37428,-6.8778 -3.21521,-7.0042 c -23.74937,-44.3739 -28.61741,-108.29194 -22.11196,-147.58224 -12.91305,5.5862 19.05463,-65.00293 45.29215,-81.72373 30.60904,-18.133 12.50201,-3.1398 39.44211,-11.4442 15.06276,-3.9513 31.39865,-5.7932 46.79858,-5.8671 19.78164,-0.051 38.00963,2.7221 49.97829,7.7348 19.59805,1.0781 29.92903,6.3046 54.05387,13.5163 48.71631,16.4314 -4.99907,-0.5724 14.38143,21.1536 34.25095,32.82923 -58.01174,-25.9005 -89.08057,-14.1486 -55.29436,19.558 9.06502,-5.9816 35.56142,7.0809 6.21397,2.1121 10.46058,3.5236 13.90615,4.6281 -19.73194,-5.3841 -68.50923,-15.8511 -65.75369,8.62993 19.62512,0.2072 49.23698,98.99284 32.51282,40.0423 -38.16771,-45.33803 23.60689,-31.3092 54.67548,-20.8297 12.16064,5.7177 -34.11728,-4.6175 10.48602,9.2665 48.54542,20.8565 29.9875,-20.8374 -7.27081,-19.3922 -26.84645,-10.74453 -35.01381,-7.1123 -65.05237,-11.84773 -20.5825,-16.5313 72.00607,-0.8836 98.74437,19.45673 1.61178,-2.4139 2.76534,-3.4928 3.57918,-3.6513 -7.04049,-13.4605 -3.6419,-8.3211 21.97805,6.5322 9.24914,-6.4234 59.38172,44.6446 88.69266,52.5067 -7.99846,-30.1687 12.22456,5.5914 29.95047,18.8964 10.9948,6.53724 16.6036,58.34374 48.469,68.96364 11.22349,12.048 31.61889,7.1655 33.42099,27.3222 17.6973,21.1583 24.066,42.1795 40.3443,71.5593 7.9704,33.1181 18.7006,99.301 27.0543,110.4595 20.0681,4.3861 3.7565,0.041 11.7826,16.7113 -18.6294,54.9365 -69.2315,103.7205 -131.50449,110.6642 41.61909,-10.183 -22.7968,-4.0053 -36.944,-1.3564 -17.21012,0.7079 -39.70113,-6.5064 -49.97505,-7.2434 -10.57343,-2.8367 -16.62929,-4.5729 -24.95503,-7.6359 -36.59051,-7.9317 -3.3253,-5.1947 -29.23649,-8.5802 1.99176,-1.7408 -53.35153,-22.3964 -78.1819,-46.2709 30.34157,7.1644 -11.44221,-23.6235 -37.39226,-42.54 l -10.84899,9.7683 -20.20693,-5.3272 c 5.30357,4.1924 10.67829,8.2903 16.12832,12.301 46.06874,29.7378 85.18372,66.2621 125.02996,97.0486 22.66804,6.0593 46.40985,14.8212 70.42516,22.3632 -32.16169,37.1843 -60.87386,77.6235 -91.14144,116.248 -42.22315,51.6996 89.05412,75.6529 28.3592,122.8107 -36.58897,35.3822 -58.00773,100.2955 -104.72384,117.2866 -73.40043,13.6624 7.69622,111.79 53.63123,107.1429 66.39859,5.5379 39.43231,96.1732 54.39517,142.7548 33.36393,51.1807 -8.41,144.3592 68.15384,158.7161 123.12254,32.8347 253.41764,30.0236 379.26824,16.8758 59.5245,-2.415 137.7958,-27.6566 108.3276,-103.3455 -28.7797,-35.0864 54.8024,-27.1299 3.234,-49.4616 -40.6268,-35.6992 -31.3912,-112.1742 -52.3856,-163.7084 -29.0136,-47.8297 20.2065,-52.7475 43.7699,-84.2589 22.6322,24.6645 68.1335,13.1217 95.7431,26.2952 24.3419,35.7889 47.1843,72.5076 69.563,109.5669 l 4.4667,-5.8084 h 0.036 c -14.5729,-39.0763 -78.2164,-93.7884 -57.2831,-121.9765 43.7549,-45.2634 58.3421,14.0648 79.4081,46.8513 5.4008,8.6544 21.2727,35.8482 31.9574,53.2423 l 1.5715,-3.3852 0.043,-0.2401 c -22.1374,-41.6427 -63.9708,-88.2552 -62.8191,-125.7733 22.8518,37.602 45.2325,75.5187 67.441,113.549 l 2.452,-6.4613 c -13.4467,-23.27 -26.9434,-46.518 -40.6361,-69.6182 -49.2454,-41.4054 16.0855,-72.1973 3.1948,-117.6423 -34.1048,-77.6235 -82.4299,-148.5653 -122.1033,-223.5803 -7.768,-39.784 -86.1205,-97.8115 -45.7672,-127.7833 37.488,-36.6019 77.8585,-73.1401 99.6178,-122.9885 -30.9711,-71.2831 -71.1687,-138.3593 -106.3294,-207.6929 23.1445,-38.41964 45.3172,-77.62334 72.6853,-113.20114 66.8111,-92.7168 128.6476,-190.73224 206.5742,-274.3227 57.8757,0.68826 118.521,-32.82097 135.0613,-90.86959 C 1824.9678,396.45669 1755.0627,276.5486 1676.8681,191.61921 1596.1518,109.16426 1485.66,35.01279 1366.9695,35 h 0.01 z M 773.41853,890.13556 c 0.48376,0.9214 1.1026,2.1192 1.67446,3.2227 -0.18346,-2.099 -0.66861,-3.4044 -1.67446,-3.2227 z m 1.67446,3.2227 c 0.96868,10.7053 -6.00916,43.0379 7.12441,14.0731 -2.86502,-5.94 -5.15825,-10.3473 -7.12441,-14.0731 z M 1415.2948,41.23834 c 15.5574,0.10058 -11.6846,9.15018 -28.5509,18.26633 21.696,-32.45143 -69.8693,-8.69082 -92.4018,-1.87078 l -13.6194,4.55106 c 35.5781,-28.31299 101.5776,-19.1018 124.1238,-20.31521 4.6377,-0.44797 8.0504,-0.64288 10.4483,-0.6314 z m -31.2616,6.41883 c 0.6644,6.04614 -0.7613,11.2044 -3.747,15.71835 -3.0795,2.17104 -5.1407,4.27218 -5.3587,6.17574 -23.5337,21.5071 -84.8105,28.13364 -98.2208,62.01776 -9.9477,32.19957 -38.5275,57.78133 -50.6201,69.66303 -14.4393,-2.69444 -4.6514,-3.10705 -7.0664,-9.9896 -1.0481,-29.36877 2.1271,-61.29964 21.4724,-89.35778 28.8051,-45.71753 90.8711,-54.2275 143.5406,-54.2275 z m 76.7295,15.43822 c 4.1301,-0.2674 11.5316,3.57097 25.3808,13.7267 36.0822,15.76421 72.14,34.43059 98.9868,57.86539 17.3186,8.86146 26.3411,18.95948 39.5191,31.22788 11.7903,9.22431 19.8098,12.18485 24.0651,22.41636 11.1224,6.66069 15.6366,10.66534 20.8442,20.55825 7.755,4.25934 12.0927,12.63291 18.3338,19.99941 7.1448,5.15972 11.1036,16.23908 19.4505,22.38197 7.9008,16.10264 16.738,20.43734 22.2736,36.89448 10.3479,9.72077 16.6394,27.85067 25.5685,43.5925 22.0148,33.81231 4.645,16.3481 -14.3887,27.00212 -13.6424,-4.90283 -24.5899,-51.15474 -39.8334,-68.08442 -7.4292,-12.33139 -15.8455,-22.02732 -23.4801,-33.04844 -7.9242,-10.52019 -16.9787,-21.06763 -25.3063,-30.05857 -7.7672,-8.19285 -15.5545,-16.3858 -23.3217,-24.57584 -41.8579,-39.51619 -98.4121,-80.56172 -156.7547,-102.8072 l -12.4911,-3.98344 -8.8147,-1.96306 c 6.0843,-15.124 2.0683,-30.62194 9.9683,-31.14409 z m -119.3248,32.57653 c 9.0047,-0.30434 -19.279,24.68401 -36.3661,36.74789 -48.8857,45.09706 -11.8152,-17.36745 13.127,-26.57904 13.0882,-7.14844 20.2319,-10.06058 23.2391,-10.16885 z m 104.3691,5.78742 c 126.2857,38.75219 232.1444,140.46663 281.4212,262.37436 -37.337,-1.60348 -97.5349,-22.54936 -135.509,-46.18993 -33.5984,-59.49409 -114.6518,-73.48399 -122.9476,-148.78077 -3.9923,-19.9977 -27.2966,-51.82174 -22.9646,-67.40366 z m -27.1595,19.7104 c 34.0898,8.69934 92.0117,111.59344 33.7682,141.86111 -18.4091,-41.11955 -24.7445,-95.2489 -33.7682,-141.86111 z m -43.901,2.4511 c -23.2825,43.21775 -26.77,136.71647 -75.5554,144.71336 -10.9452,-0.60878 -19.9469,-9.18717 -23.045,-19.22523 -19.9404,-62.75619 57.2907,-95.67136 98.6004,-125.48813 z m -29.4933,1.22481 c -163.7358,129.4957 -328.5051,257.82474 -493.83613,385.25252 l -2.74256,-0.16614 c 112.2085,-93.31959 230.13889,-180.51826 344.67779,-271.32304 50.1783,-36.33519 102.4269,-85.46113 151.9009,-113.76564 z m 50.2181,13.78814 c -60.268,152.15087 -121.4754,304.0382 -184.1441,455.24674 l -1.987,-0.623 c 38.2575,-101.60611 80.6895,-201.63192 120.6055,-302.60655 20.2426,-43.51807 49.3423,-136.6047 65.5256,-152.01719 z m 9.5254,9.17455 c 9.5528,10.01086 41.7522,93.30268 17.8229,122.25966 -5.8254,7.44081 -14.9285,15.46295 -25.4261,12.59797 -80.7701,-0.1257 0.025,-93.99576 7.6032,-134.85763 z m -155.5629,65.94709 c 12.7593,-1.30758 18.7189,49.30095 6.0706,56.38699 -5.5159,-19.81856 -35.3566,-40.49786 -12.2322,-29.34732 26.1103,67.98747 9.7607,-29.69575 -20.0288,-2.43973 -30.4908,16.21504 19.1893,-14.11392 18.4587,-17.92344 2.7554,-4.41721 5.3534,-6.43057 7.7317,-6.6765 z m 241.07,30.1241 c 15.9309,-1.2862 -30.2659,54.75942 -65.4265,51.03077 21.2802,6.28893 -39.0193,0.4012 5.4353,9.17822 52.987,14.91248 111.6558,69.77187 101.4563,126.62678 -22.2818,40.41336 -39.2667,87.45779 -79.156,94.55239 8.3978,10.82911 -52.8476,-19.00294 4.7202,-9.876 -22.6649,-3.08612 -101.549,-33.99012 -120.8981,-80.14752 -8.8342,-21.33552 -26.6767,-57.22434 -10.4404,-77.34436 16.0331,-45.53492 80.1768,-56.3964 110.0857,-93.12345 13.0759,22.93835 37.4832,20.46292 52.3239,-20.55828 0.7132,-0.18346 1.3438,-0.30446 1.8996,-0.33855 z m -65.4265,51.03077 c -2.095,-0.61788 -4.6656,-1.30738 -8.4799,-2.18375 2.7134,1.20217 5.5672,1.87071 8.4799,2.18375 z m 91.7411,-38.6275 c 9.2618,-0.3637 18.5045,4.99828 24.9356,19.63549 62.5125,20.49866 1.4429,118.18288 -25.2759,50.17302 l -6.5386,-6.5805 c -48.641,-9.34289 -20.8864,-62.11266 6.8789,-63.22801 z m -233.4525,17.26818 c 31.6309,0.97178 35.9807,43.3872 -6.5006,24.34537 -17.0112,-3.93065 -50.4966,-20.40021 -8.6877,-21.91548 5.5867,-1.85807 10.6764,-2.56356 15.1883,-2.42989 z m 80.3289,15.79207 c 11.1009,0.28935 17.1109,6.85717 -3.253,18.90576 -5.77,5.12285 -11.21,12.16351 -19.7035,12.67267 -14.0414,-21.99374 8.6817,-31.97052 22.9565,-31.57843 z m -101.3193,10.55739 c 3.2488,0.0812 5.6158,1.59089 5.348,5.38738 1.2351,-10.93376 36.3532,29.46879 27.2688,33.97047 -6.4566,7.54974 -0.011,15.27996 -14.1484,23.78676 -11.966,-15.96998 -19.4626,-32.53517 -28.5479,-50.39076 -12.4665,-3.04544 -0.01,-11.95252 8.6555,-12.70409 0.5012,-0.0508 0.9571,-0.0569 1.424,-0.0508 z m -91.1156,5.50839 c 6.0408,5.1944 -88.8527,62.72209 -120.6107,85.5617 -43.345,28.64093 -86.39399,57.72068 -130.26909,85.52721 79.70519,-62.41994 166.96459,-114.54352 250.87979,-171.08891 z m 68.937,14.15173 c 57.575,37.70863 14.4873,110.09158 -5.8271,160.67192 -28.2023,36.41389 -32.2492,162.20177 -95.07,125.29946 -65.9216,-23.06995 5.0387,-98.55415 12.8254,-141.51489 24.904,-50.13367 43.7312,-110.46349 88.0717,-144.45649 z m -59.0637,0.12558 c -19.1364,59.62727 -51.5981,114.64888 -77.4661,171.74962 -14.362,83.25879 -75.8408,54.82022 -129.4068,29.00317 -15.84929,-9.4748 -53.11729,-3.22784 -60.49469,-18.4799 84.52969,-66.67692 178.71459,-121.00814 267.36759,-182.27289 z m 181.7975,18.48277 c -14.0391,0.2798 -26.032,6.16701 -25.6609,28.04883 v 0.005 l 0.284,8.81128 c 15.1452,61.82085 89.7324,139.75956 156.2261,106.60648 19.7677,-60.80345 -47.9913,-112.68957 -95.9198,-138.3094 -8.5301,-1.30763 -22.5336,-5.42457 -34.9294,-5.16984 z m 250.7039,6.84438 c 37.912,0.7426 88.3307,28.77634 99.1371,41.50752 -40.9307,13.31224 -96.9386,-6.98954 -140.8737,-14.06416 5.4714,-20.71708 21.8894,-27.81893 41.7366,-27.44336 z m -419.565,2.52609 c -26.7195,68.20572 -63.2483,133.20875 -94.0099,200.05372 -4.3504,7.97386 -7.554,16.82051 -13.9257,23.54182 33.8501,-75.28352 68.1977,-152.11142 107.9356,-223.59554 z m 179.9648,0.49694 c 38.3899,-0.10046 90.3847,55.8387 106.5687,86.03504 39.5559,91.37294 -98.007,26.32097 -113.0509,-17.62048 -10.5521,-15.97367 -20.1048,-33.88791 -21.4862,-53.35225 7.534,-10.60684 17.2119,-15.02531 27.9684,-15.06231 z m 180.6321,5.29084 c 2.826,0.34207 3.5375,6.02152 -0.7368,19.94035 19.5555,2.88938 -27.349,29.12682 -5.4608,24.80728 28.5467,-39.26079 10.3959,8.88357 -8.2975,8.94203 -13.5368,-20.55721 7.326,-54.55034 14.4951,-53.68966 z m 47.7824,38.88567 c 27.7866,-0.0238 60.4073,7.62022 80.6395,12.12341 -9.1798,21.35952 -86.1247,44.47069 -120.0241,64.69496 -7.0919,-0.29848 -2.5468,-14.26549 -7.061,-15.82337 -16.9844,-48.29945 10.7267,-60.9697 46.4456,-60.995 z m -303.5915,19.79277 c 37.2101,37.88865 80.1445,92.427 135.8986,118.95634 -66.2055,32.69447 -132.3575,65.80728 -200.0882,95.28198 -1.26,-5.11886 -20.1614,13.2765 -20.6364,2.01093 24.8104,-73.31029 55.0025,-144.90027 84.826,-216.24925 z m 486.707,7.78158 c 2.6878,-0.0505 4.4113,0.83604 4.5213,3.03034 -5.4079,0.7308 11.9434,34.78657 1.8611,71.00048 -5.1376,-40.16351 -3.3365,42.9611 -31.077,58.50338 -6.3425,9.49444 -10.9624,11.99076 -19.179,18.88763 -17.9174,15.01928 -53.4297,27.24379 -84.2642,27.35117 -30.988,0.54108 23.8067,-63.11002 45.081,-58.07899 -51.119,30.44484 0.7695,2.40587 18.0081,-11.2377 10.9167,-14.32208 24.871,-37.98873 27.6815,-58.06217 -2.3814,-19.66911 35.976,-47.1967 -2.2495,-25.67811 -1.9435,-7.2347 27.9694,-25.44965 39.6167,-25.71603 z m -82.5332,3.62766 c -133.7769,68.01198 -270.3916,130.71586 -405.2028,196.8196 -13.5659,5.81906 -27.6348,14.87387 -41.8247,16.56322 98.0943,-52.39367 200.7687,-97.52026 300.6296,-147.12014 48.5152,-20.36486 99.2172,-53.72499 146.3979,-66.26268 z m 1.1594,17.82565 c -11.9864,26.47173 -44.3792,117.74573 -98.2286,104.83199 l -10.5979,0.28294 c -74.7881,-55.45124 73.0808,-77.59802 108.8265,-105.11493 z m -164.483,6.7372 c 11.6229,-0.76352 17.9221,34.06561 -9.4973,37.31889 -14.3349,13.79901 -15.5672,-13.61791 -4.8815,-16.04134 4.4763,-15.22085 9.8374,-20.97093 14.3788,-21.27755 z m 198.7616,20.14689 c 7.13,0.86462 -15.5098,58.95365 -40.8629,64.71376 -24.3021,15.56636 21.1042,-36.26454 22.8327,-42.44774 9.9911,-16.48832 15.665,-22.55482 18.0302,-22.26602 z m -23.3015,1.6853 c -111.4825,175.00743 -234.823,347.26585 -350.0549,521.80862 l -4.6407,6.1034 2.0132,-6.7365 c 116.3411,-174.51967 234.8269,-347.68787 352.6824,-521.17562 z m -165.3569,45.95685 c 20.965,-1.50106 27.6032,97.19251 -2.6537,39.49213 -3.6704,-8.8136 -7.4843,-17.58382 -10.3151,-26.71943 4.7237,-8.7709 9.0847,-12.49064 12.9688,-12.7727 z m -669.6302,11.0374 c 2.39138,-0.0176 4.78014,-0.0176 7.17179,0 42.12972,0.50566 85.20731,9.62697 118.36941,25.42741 29.6083,57.29152 -36.7826,26.41463 -71.90669,19.84943 -50.25801,5.66932 -6.0752,-36.0399 -29.9338,-38.86077 -29.70743,-8.40873 -84.21093,0.91908 -113.07141,20.77768 -3.47243,-14.04794 30.16838,-17.54978 40.69163,-22.3888 15.51988,-3.06125 31.98113,-4.62165 48.67907,-4.82203 z m 614.4455,6.12457 c 23.0372,0.80545 70.8225,37.51733 31.0181,37.47394 -13.5735,-6.22907 -27.5015,-11.82256 -40.5002,-19.2424 -3.959,-12.57212 0.01,-17.65181 7.3306,-18.18898 0.702,-0.0324 1.4127,-0.042 2.1515,-0.0248 z m -623.34096,5.87414 c 46.81947,-0.2319 -13.46972,36.42249 -41.17779,27.26939 -14.21269,-12.47255 20.79785,-25.54245 30.34911,-26.71303 4.1165,-0.35594 7.70878,-0.53952 10.82868,-0.55636 z m 728.80796,11.801 c 22.2803,0.0626 53.5769,6.6219 25.0587,27.58403 -18.3988,34.74643 -12.4689,-8.79574 -36.6594,-8.39764 l -3.7583,-1.59468 c -9.9929,-10.83699 10.0556,-10.16379 26.618,-7.99945 -0.715,-0.11171 -1.1603,-0.22266 -1.9204,-0.3807 -41.6469,-4.39874 -28.9975,-9.3108 -9.3386,-9.21156 z m 11.259,9.59226 c 31.0389,6.28435 17.6549,2.32457 0,0 z m -136.0263,3.77623 c 18.5123,-0.0704 35.9872,5.63618 51.0275,21.19476 -31.9167,46.13188 -91.773,65.38148 -138.8006,95.87241 -51.2206,22.87911 -114.4451,96.48659 -147.7721,15.87437 -30.8133,-49.88428 88.1966,-62.46107 112.9184,-89.79786 36.0823,-14.36326 81.8748,-42.89382 122.6268,-43.14368 z m -672.78008,7.42779 c 42.62361,14.03233 5.04856,44.61106 -15.23097,56.20425 -20.14721,-17.31145 1.72141,-42.97835 15.23097,-56.20425 z m 103.27749,3.48571 c 6.2241,-0.0689 12.5977,0.2577 19.1274,1.14546 7.303,3.51896 -17.2678,3.07768 35.3951,11.10288 53.01699,18.40531 116.47539,35.79287 150.79109,81.07451 -95.3654,40.22307 -196.24329,70.29088 -294.1503,105.25143 -34.23547,3.09518 -89.14023,48.83672 -87.38187,16.24705 l -6.75745,-7.68415 -3.86238,-2.68096 c 37.28244,3.87668 18.25361,-84.08016 43.86374,-113.1329 36.14042,-45.24219 82.74297,-90.30256 142.97467,-91.32332 z m -148.37794,29.75083 c 9.89298,48.87443 -17.4141,118.79978 -36.73496,169.68663 -4.0673,-47.75115 19.95248,-118.16306 36.73496,-169.68663 z m 735.78643,33.88073 c 3.411,7.5934 -72.6111,43.59295 -97.4398,60.28217 -34.7147,17.95443 -73.5523,45.19162 -107.6964,56.52811 67.5175,-40.14898 136.068,-79.19313 205.1362,-116.81028 z m 36.216,3.8405 c -50.521,95.77571 -107.2255,188.50064 -160.823,282.70727 -17.1863,12.9057 -20.8882,-79.11873 -43.2455,-102.40203 -7.2363,-17.9705 -21.8579,-34.24205 -26.2391,-52.90488 76.2381,-43.30025 151.5534,-89.03583 230.3076,-127.40036 z m 23.3507,3.30442 c -33.8994,67.09444 -72.276,131.97229 -111.4742,196.12822 -4.8609,7.144 -9.3734,14.5472 -14.8348,21.2677 41.4978,-72.33005 80.8344,-149.53032 126.309,-217.39592 z m -461.26,48.97064 c 5.402,0.045 10.1793,1.01294 14.1644,2.98063 -95.8073,38.18858 -195.00939,67.68103 -291.88274,103.21385 -6.96538,-1.7755 -15.58412,10.2148 -22.98726,5.246 24.18958,-37.20398 106.51021,-40.08994 152.45931,-64.42049 41.96359,-7.85182 110.40919,-47.67731 148.24629,-47.01999 z m 36.1066,8.75364 c 0.975,-0.0205 1.9478,-0.0108 2.8859,0.0202 15.7196,0.72368 23.4155,11.10652 14.0901,40.48487 -31.0692,117.15107 -59.1705,236.98594 -98.5104,350.88484 C 990.6665,992.7392 902.37981,910.08366 803.46882,850.66443 c -14.05569,-7.4068 -28.30478,-14.5131 -43.25498,-19.9477 83.92543,-33.54568 170.24027,-60.7953 255.43216,-91.00951 24.8793,-3.80748 81.2177,-35.62143 111.999,-36.34233 z m -412.54271,16.77836 c 10.72805,-1.30924 -24.27141,71.32015 9.84174,70.75367 -49.44314,8.06941 -23.836,27.31811 -63.76192,22.19671 38.92014,14.6731 -16.61619,1.8109 -33.59518,6.1177 -12.09795,0.7325 -23.94559,3.4117 -35.97239,4.6971 43.63044,-10.4031 73.94793,-52.81006 104.48295,-85.92125 10.56886,-12.383 16.27346,-17.50968 19.0048,-17.84393 z m 471.61041,18.80745 c 41.3608,27.61632 67.1842,89.15633 86.3949,138.08866 24.1164,29.0025 1.569,136.80034 13.8836,108.30874 -11.1288,31.2836 -39.337,67.2333 -61.3085,87.1519 -38.964,38.0561 -93.8656,35.2621 -139.5053,48.5205 -16.0266,-5.138 11.418,-44.9321 8.0397,-60.9598 32.3299,-106.51924 54.1884,-216.73317 92.4956,-321.11 z m -25.5841,6.04698 c 1.0524,-0.81304 3.3855,18.31453 -4.9304,20.98722 1.5433,-3.95823 3.1199,-7.90031 4.7545,-11.80743 -0.3995,-6.31718 -0.1875,-8.89695 0.1778,-9.17979 z m -5.0379,21.25139 c 14.9606,3.43834 -20.7314,35.17136 -3.5695,22.7555 9.1621,4.16811 -35.6019,80.56266 -11.5166,43.03766 -1.3064,29.5248 -8.9227,15.6918 -12.9938,36.1645 2.7096,6.9217 -1.5778,16.18393 -13.3544,50.25473 9.3622,1.3039 -5.4097,5.9271 -9.0867,30.1695 l -1.437,1.1527 c 16.1335,-61.0623 29.2301,-125.04293 51.958,-183.53459 z m 122.6848,39.69666 c 14.3801,0.3028 31.1021,9.0352 26.2221,27.6978 -18.3163,-32.1231 -34.8787,12.8484 -38.372,-4.8635 -14.2733,-15.0366 -2.2306,-23.1439 12.1499,-22.8343 z m -691.4075,34.6952 c -9.25841,-0.062 -24.13763,4.6213 -34.60109,14.8859 -7.45178,2.591 -1.18787,15.1868 3.15544,16.3796 21.79882,-3.2538 100.89084,-16.5952 99.96749,-30.0048 -9.95109,6.6657 -108.87452,38.11083 -82.06521,22.0792 28.047,-14.9422 25.44915,-23.1769 13.54337,-23.3399 z m 726.8041,12.2887 c 1.9769,-1.2117 28.3192,74.28923 27.5383,96.83583 8.7138,61.79784 -3.6508,-0.7078 -39.3737,3.624 -12.3817,1.2294 -1.6764,-35.092 -8.8403,-46.7114 -13.776,-62.59373 3.0214,-8.4611 8.1662,22.0101 22.7777,47.29604 47.8893,-12.2768 20.5219,-44.1845 -6.6467,-22.23743 -8.6904,-31.17683 -8.0124,-31.57403 z m -705.97839,13.4606 c -22.59686,1.2855 -65.81342,53.06083 -67.11212,86.77853 -21.05913,-2.2765 12.44924,48.36444 -11.04532,28.03144 0.21735,-62.50654 -10.15902,-1.9669 -5.144,27.6648 2.71703,17.7357 8.03344,35.0347 14.50211,51.7675 -5.01504,53.4284 141.91934,29.3377 61.54124,30.5728 -85.15989,-11.491 33.89674,-1.6449 60.1624,-4.6907 -1.39827,-6.3602 -2.01705,-11.2611 -2.04125,-15.0869 -1.92913,3.5373 -4.0884,5.4465 -6.73606,4.8988 -36.91562,-8.0064 -109.48069,18.346 -101.70188,-43.0358 -18.26508,-59.2275 -5.87406,-148.08834 63.86291,-165.59537 -1.82113,-1.04 -3.9462,-1.4378 -6.28803,-1.3051 z m 50.86306,205.03747 c 1.52781,-2.7876 2.91359,-6.6473 4.27213,-11.1789 -2.71864,1.6403 -4.31895,4.9055 -4.27213,11.1789 z m 4.27213,-11.1789 c 9.81753,-5.8307 33.86134,9.7031 44.94064,-18.3786 50.69536,-20.0741 0.83926,36.1636 0.13206,15.3774 41.82176,-28.6059 -24.72148,7.0874 -4.06653,7.668 25.22178,7.8915 -15.72701,24.5385 18.72771,15.3817 3.01156,4.4771 6.10565,9.2631 9.21263,14.0552 l 20.69215,0.8136 c 0.75104,-5.5861 2.86382,-11.3093 5.16967,-12.2958 9.55019,-10.2142 15.18366,-13.7349 18.70043,-13.5977 10.56015,0.4465 2.1496,34.0389 23.98162,20.0426 4.32108,24.6192 21.34698,38.3383 22.12461,54.5677 l 5.28094,7.4146 c 3.11674,-8.3171 4.38098,-16.5012 2.33096,-22.2515 15.71524,8.2919 -24.94331,-47.9339 -43.98451,-63.6576 -48.81304,-27.8935 -36.76064,-21.2908 2.24647,-11.5444 29.87899,26.8441 67.88641,74.1835 51.33616,116.6934 l 1.91988,5.0949 c 26.43933,-39.1531 -32.67307,-97.2607 -48.95975,-128.9825 23.24018,24.8764 62.63516,64.2964 66.7602,105.0433 -0.44988,-23.617 -1.74634,-42.3734 3.46898,-15.37 20.96086,-8.6945 -14.91433,-48.0305 -12.44963,-46.587 -35.87291,-86.5454 45.692,88.0227 27.08755,17.7969 5.77498,1.9375 14.64737,31.7789 4.19982,-6.1391 -9.46248,-24.2729 -17.77752,-40.4384 -33.03591,-51.3087 -6.14166,-13.3006 -18.48128,-16.4049 -30.87393,-31.7814 -37.08723,-7.0016 -25.21842,-24.407 -54.84303,-32.9111 9.5386,3.713 16.16523,34.594 41.93043,46.9259 29.56353,21.0165 -66.00833,-42.6464 -41.12908,-5.348 -13.03292,-6.6364 -59.74898,-20.1292 -79.39691,-1.336 -1.50379,1.9939 -2.68034,3.4643 -3.95507,5.0883 19.63645,-17.8478 80.32867,-2.4387 104.26122,9.2375 -24.53739,4.0849 -83.1678,-24.096 -108.6912,16.9541 -2.74261,-9.267 -2.20951,-16.3055 0.6928,-21.5216 -6.32622,7.631 -9.0066,9.4224 -9.01939,7.3674 -1.67449,6.3058 -3.2535,12.3943 -4.7942,17.4885 z m 4.79438,-17.4885 c 0.30296,-1.1812 0.59587,-2.2832 0.92174,-3.4886 -0.5589,1.504 -0.93452,2.7625 -0.92174,3.4886 z m 0.92174,-3.4886 c 4.18821,-11.3539 22.74217,-41.9256 32.75582,-47.6749 -4.28359,-34.75124 -75.3791,-111.64584 -65.07356,-121.79687 -12.77933,7.87663 47.793,84.15643 63.72499,115.97167 -17.42576,6.9546 -25.4976,31.6171 -31.40725,53.5001 z m 8.09622,-3.8788 c 1.11542,-1.3172 2.38981,-2.9425 3.73837,-4.67 -1.49496,1.3629 -2.75543,2.9146 -3.73837,4.67 z m 182.73432,116.3002 c 0.0589,4.1774 0.11323,8.2973 0.11323,12.5729 0.37429,-4.199 0.30241,-8.3955 -0.11323,-12.5729 z m 0.11323,12.5729 c -0.91177,10.0741 -4.27303,20.1559 -10.8997,30.0288 l 0.37647,1.016 c 8.64167,10.0285 10.43978,-9.6525 10.52323,-31.0448 z M 524.80309,889.10796 c -4.71908,-0.2047 -10.33989,6.8853 -15.09608,27.793 -7.73027,3.6553 -4.22173,15.2438 1.57808,18.53 4.89038,-3.2543 11.77229,13.3344 12.91238,-8.456 17.02566,-1.6768 10.98282,-37.4392 0.60562,-37.867 z m 286.0767,18.133 c -7.26768,-0.016 -8.29846,9.8121 -9.40426,26.9337 8.91996,-35.192 69.21044,22.8814 91.45983,41.56754 30.28885,38.6237 22.72845,7.1371 -2.7302,-11.18974 -23.94269,-17.4966 -43.93362,-26.1282 -56.53236,-45.4244 -11.14289,-8.0718 -18.20447,-11.8615 -22.79301,-11.8871 z m -9.40426,26.9337 c -0.92274,3.664 -1.23624,8.3977 -0.9577,14.2167 0.38854,-5.3266 0.6773,-9.8599 0.9577,-14.2167 z m -0.9577,14.2167 c -0.20762,2.7633 -0.43726,5.6652 -0.71696,8.6826 l -0.66778,8.664 -0.56858,7.53274 c 1.12752,60.9366 5.12026,23.1947 3.00782,-14.04584 -0.59428,-4.035 -0.89942,-7.5735 -1.0545,-10.8335 z m -61.84902,-24.3981 c -4.46421,-0.717 7.7791,22.8793 -11.57595,33.0562 l -4.48102,4.5892 c 23.54435,26.11404 -0.91039,-13.9073 20.4744,0.3788 49.84421,14.79294 -15.05861,-35.1378 11.38393,-23.7305 -9.75522,-10.0004 -14.05204,-14.0103 -15.80136,-14.2937 z m 367.24989,28.5474 c 0.021,0.033 -0.057,0.7819 -0.5581,2.2252 -0.3634,0.6068 -0.6822,1.1601 -1.0415,1.7421 0.7779,-2.0001 1.5451,-4.0475 1.5996,-3.9673 z m 211.1191,16.5821 c 12.1174,-0.366 23.7176,39.33994 -8.4293,44.87574 -6.0356,-2.9935 -9.4139,-11.316 -3.9341,-17.3718 2.0476,-20.0443 7.2493,-27.34634 12.3634,-27.50394 z m -606.93682,2.20794 c -10.80298,-0.052 0.21627,19.1518 -2.24619,29.7254 -10.085,5.6234 5.34067,0.025 2.43855,4.8054 2.92642,-2.6432 6.28815,-4.2751 9.88014,-5.243 -9.30828,-5.6171 -23.88299,-30.1583 -4.47712,-22.9417 2.3175,32.6541 -3.7871,5.6455 9.37938,-1.0682 -7.22005,-3.6822 -11.95153,-5.247 -14.97476,-5.2779 z m 10.0725,29.2878 c 2.6218,1.5985 4.81851,1.6483 5.72896,-0.9425 -1.96633,0.1757 -3.88385,0.4668 -5.72896,0.9425 z m 5.72896,-0.9425 c 23.60671,-1.8471 53.16892,18.2347 46.33623,-4.0232 -31.60347,-2.3638 -26.73819,-23.8185 -47.67202,-10.0247 1.91737,7.3728 2.13801,11.7397 1.33579,14.0479 z m 370.24746,-19.9796 c 0.9761,10.8116 13.4916,8.352 -5.5617,24.0152 9.8467,-1.9685 -11.4697,32.0152 -1.9429,22.495 -0.6729,16.9524 -3.0381,44.7883 -15.3267,39.675 l -2.9304,3.3295 c 2.5147,-18.4731 16.1287,-61.1943 25.7617,-89.5147 z m 245.292,15.0996 c 1.9358,-0.027 -3.9636,43.5851 -16.0901,55.5958 -36.6096,-22.0675 6.4002,36.6677 -27.7622,2.111 24.138,-20.8687 -15.1918,13.3538 -43.8211,10.0647 -12.7546,-10.4922 18.6875,-32.6987 31.279,-53.1903 4.9607,23.5451 45.7711,56.1339 50.4628,10.0784 3.2339,-17.9203 5.1763,-24.6411 5.9316,-24.6596 z m -421.92889,3.6901 c 13.6189,27.954 45.7172,55.2755 60.54679,86.7581 43.5652,59.7306 -38.05589,-79.1751 -8.1579,-22.1435 44.864,73.1936 -14.53929,-13.4856 -21.07869,-31.678 -10.9955,-4.3275 -18.5206,-21.1483 -31.3102,-32.9366 z m 454.41899,3.7523 c 2.0987,4.3283 4.4121,8.1679 7.1622,10.6334 13.2468,33.1621 35.4316,62.7722 47.448,95.9151 19.7611,40.6029 75.7082,93.2605 21.9421,135.4643 -27.5343,66.9943 -46.5922,-14.1482 -65.3184,-41.4354 -19.8668,-22.7534 -58.2038,-146.5986 -62.7768,-63.6979 -2.6721,16.3545 10.8627,11.4697 14.9043,32.0676 10.5231,15.6731 18.656,31.2574 26.8532,51.258 8.89,22.2747 54.8635,75.7634 23.3786,77.4903 -34.0669,-28.2646 -46.6676,-101.7396 -82.7137,-122.3173 -19.2595,26.2446 -53.3061,61.2814 -71.0411,72.693 -35.5288,28.245 -10.3461,18.1584 11.6519,-1.972 37.0206,-60.7424 54.5578,14.3662 76.0964,46.4266 -7.6783,-8.6811 -10.0001,16.1466 9.1056,16.115 -5.2911,3.8082 -2.6693,28.3731 26.9331,28.5051 65.3625,105.5947 123.4427,215.9901 185.248,323.8265 20.017,44.5555 -15.2284,73.3998 -35.5853,90.7245 -10.7112,11.0425 -34.8339,28.5476 -67.6877,33.0618 -7.529,2.2322 -15.4606,1.3826 -23.1714,1.7526 -79.2558,-9.2861 17.6369,-5.4853 46.3981,-20.434 68.6266,-48.6582 -40.7526,29.9008 -52.8518,-11.7142 -61.326,-4.1426 13.5363,-59.0619 20.2821,-86.8104 39.3909,-19.6817 -12.4346,-108.8698 -9.8877,-90.1888 38.812,47.9472 3.7214,93.6315 -27.1353,133.7357 -25.2758,11.4905 -17.1429,80.3231 -29.3418,46.8839 3.6508,-71.3457 -39.147,-134.2726 -88.1406,-182.0331 -42.3811,-35.4379 -59.3713,-55.7915 -104.4517,-83.4809 -40.5448,-4.8871 13.0129,-80.6441 30.1315,-59.0982 45.5205,29.681 90.6689,63.9575 127.198,105.5459 32.8294,30.3582 54.8155,86.413 72.6017,113.6872 -12.2714,-60.5959 -54.2168,-110.3513 -97.9275,-152.0072 -30.7545,-28.3152 -67.1771,-52.2741 -98.2534,-72.7957 -28.1013,0.047 -38.9771,-58.8807 -66.8884,-81.6033 -44.5424,9.7106 -35.7153,-30.2047 -55.1605,2.5913 89.5848,-13.6685 4.2423,51.512 -14.7534,86.3954 -40.8092,35.4959 -56.7107,116.4054 -124.49219,97.016 -47.11037,-9.1575 -137.0188,5.4608 -160.41707,-19.4779 30.42696,-38.5483 61.28838,-76.9144 92.17797,-116.2177 9.85161,2.9626 19.74137,5.6425 29.6255,7.7672 -5.3535,2.0743 -10.39057,4.4619 -14.00793,6.6644 -35.58419,18.6554 -42.17362,53.1423 0,71.3963 7.05396,9.6637 2.93648,-11.6524 -2.20786,-9.9685 14.00069,-20.544 45.90659,30.1803 17.27899,-11.9157 19.808,6.934 37.334,23.7824 11.8067,-6.4756 23.1382,-1.5255 42.804,-41.0152 9.0708,-30.1825 4.6723,-6.4604 7.1453,-11.3593 8.0408,-15.0363 14.7717,1.0981 29.3673,0.3096 43.61589,-3.3278 19.5442,-17.9321 38.3027,-36.6962 56.6562,-55.8743 11.0445,-0.062 21.9901,-0.7891 32.715,-2.4655 -48.5471,-0.5462 6.6947,-23.8821 24.536,-20.3697 -6.7131,-2.5416 -17.9993,-3.5178 -30.1784,-5.9582 33.3001,-35.9425 65.9019,-72.6053 100.1261,-107.5842 38.8049,-45.3459 79.5339,-88.9893 136.3209,-111.3176 29.7854,-30.5039 53.0608,-65.6966 75.0843,-101.8572 z m -108.4422,77.9186 c -11.7778,21.8573 -94.8372,31.5159 -132.6278,50.2723 -73.9926,19.6084 80.4627,-31.4838 5.33,-7.9176 l -14.2194,3.9364 -10.8949,2.6452 c 10.1574,-10.8385 107.83,-37.2352 152.4121,-48.9363 z m -495.26418,22.6524 3.46989,1.5878 c -0.7515,-0.8894 -1.86964,-1.4422 -3.46989,-1.5878 z m -71.2294,1.2232 c -1.41954,0.037 -2.71782,0.8754 -3.88358,2.5712 l 5.33771,-2.4393 c -0.49651,-0.047 -0.98175,-0.1729 -1.45413,-0.062 z m 301.01048,5.9075 c -3.9717,0.2305 25.711,94.9178 13.3474,45.0845 -27.45,-76.123 8.5622,-1.6752 8.8778,32.0918 4.1233,-10.2333 -1.8417,-34.2474 -11.3609,-54.9711 -6.6389,-16.1709 -9.8417,-22.2629 -10.8643,-22.2052 z m 22.2252,77.1763 c -0.2184,0.5541 -0.4726,1.0599 -0.7631,1.547 0.7569,0.9565 1.0474,1.0267 0.7889,-0.4365 0,-0.346 -0.011,-0.7375 -0.011,-1.1105 z m -0.7631,1.547 c -3.3599,-4.3843 -16.0387,-27.8685 -30.4897,-21.564 -17.1611,-10.5493 -33.03719,-12.418 -55.55809,-21.4115 -37.66727,5.2464 -52.77782,-60.683 -46.10387,-18.7996 -44.67226,32.1227 19.81457,19.8228 9.00292,48.1546 -5.8097,0.8124 -1.34588,48.2128 -13.99175,3.7831 -32.35529,8.3415 15.0942,11.8622 -18.29991,17.8183 11.79387,16.083 26.73874,29.5543 40.30671,44.113 20.3406,7.5612 66.44879,90.9589 49.3763,60.3559 21.33439,-54.1827 -48.9181,-50.1404 -70.13136,-86.2077 -35.60629,-35.9784 23.28846,18.6903 -9.20022,-17.0006 29.09318,25.7219 22.46278,-11.203 35.57448,-40.6279 32.9869,-0.7013 36.6873,7.111 61.06889,20.7618 -9.10459,-5.6372 -18.93959,-14.4519 18.9763,0.5772 3.8349,3.4388 7.2706,6.143 10.34,8.2125 -19.8977,-12.4043 -31.2836,-4.4026 4.2505,5.0167 -34.532,16.2673 12.7797,-2.6224 -11.1278,18.3476 -16.1905,41.7919 -35.64179,-21.6519 -32.27419,5.8939 -29.2345,0.6323 -19.3438,38.8468 -20.2576,18.4789 11.8347,-0.7547 49.45419,-6.2974 37.57619,7.0129 37.6522,7.2862 5.0632,26.4785 3.7449,62.505 56.1137,-49.8078 -4.1164,28.2819 -33.35189,31.5168 -23.9017,17.0872 35.82359,-10.7053 35.16129,-18.8953 36.1391,-30.7277 22.8684,-32.5965 40.4956,-66.861 4.6417,-48.6011 -0.044,-35.8239 -3.1199,-8.589 0.3147,-10.8556 -2.3085,-6.038 -6.722,16.64 -18.4985,46.8375 -20.0428,-4.1177 -3.2029,-24.7985 1.0529,-5.5088 15.0646,-33.3513 -1.6707,-39.1576 -2.9373,-2.5968 -5.8248,-4.744 -8.5607,-6.5065 9.6587,6.2487 15.4081,5.8314 18.1885,1.231 z m -7.9571,44.4331 c -0.41,2.1259 1.0344,1.0481 6.9611,-6.0059 -2.5975,1.386 -4.9119,3.4858 -6.9611,6.0059 z m 215.0372,-114.1084 c -11.1826,13.7617 -76.3437,48.2633 -105.8127,71.8871 25.0426,-10.58 59.0696,-36.3204 87.3337,-52.5884 63.4591,-37.117 -16.53,15.2456 -35.2693,25.6926 -19.2366,11.9874 -38.4397,24.0301 -57.9639,35.5212 1.1247,-15.839 79.905,-62.2728 111.7122,-80.5125 z m 102.9775,11.7647 c 19.7283,18.6816 47.0512,84.6853 70.6639,121.1577 l 3.9648,7.5651 2.1503,5.1587 c -26.3408,-22.1935 -56.9456,-90.4299 -76.779,-133.8815 z m -177.8514,5.377 c 0.9518,-0.015 1.8706,-0.015 2.7606,0 5.2203,0.1895 8.9661,1.5766 10.333,4.2999 -31.9385,12.4958 -69.8242,79.5465 -89.5081,90.9406 -9.7916,9.6709 2.8117,-19.1846 -0.2649,-17.1115 -19.9737,-44.229 46.8185,-77.0822 76.6794,-78.129 z m 36.2396,32.0906 c -42.0663,49.3121 -89.0434,94.5529 -131.8843,143.265 12.7683,-48.7953 80.0391,-110.9018 131.8843,-143.265 z m -265.01459,15.566 c -26.2499,11.3383 -8.0666,4.5414 -6.4641,7.6102 0.5625,-2.6013 2.4964,-5.1626 6.4641,-7.6102 z m -6.4641,7.6102 c -0.069,0.4676 -0.1573,0.9216 -0.1703,1.3891 0.2987,-0.5999 0.3301,-1.0534 0.1703,-1.3891 z m -0.1703,1.3891 c -0.7471,1.5041 -3.2277,3.9904 -8.7486,8.0366 2.0518,11.0969 7.9347,21.5439 16.4812,28.947 28.0251,-7.5047 -8.2733,-22.836 -7.7326,-36.9836 z m 389.92239,-1.3629 c 16.4147,0.1666 31.1014,56.056 47.8386,75.1906 15.51,23.4541 38.0923,54.1653 4.8813,61.0868 -43.116,-18.6371 -13.2778,-24.7413 -3.1614,-42.9094 -38.1829,21.2279 -61.3172,-51.9336 -65.2669,-75.2031 5.4751,-13.0443 10.6705,-18.2147 15.7084,-18.1649 z m -440.26099,52.745 -3.27828,10.1269 c 13.16848,5.333 23.47609,13.7256 26.84611,28.2949 0.2662,3.2559 0.6302,6.3491 1.07752,9.2932 -5.57816,-14.4072 -16.22223,-25.119 -29.48569,-32.7521 l -1.75874,5.4084 -1.5424,3.1462 c 3.52688,3.7261 5.90824,7.7683 6.59926,11.9364 41.44722,7.9245 9.36718,47.031 23.23233,57.4989 -16.89429,-2.0752 -44.8336,2.175 -58.08696,-13.8284 -56.48317,8.8456 -1.7364,-32.0894 20.25444,-9.3924 34.21465,8.8687 22.93765,-24.4891 3.35357,-36.7954 l -13.16037,26.6946 -12.96182,-1.424 -8.91993,-6.5628 c -2.37522,-0.5423 -5.05915,-1.2317 -7.80352,-1.8082 l -15.75186,2.3356 -0.98188,-0.072 c -1.2864,1.5949 -2.12504,3.822 -2.29292,7.0054 l -3.29001,-7.5274 -0.12558,-0.3011 -30.77703,-4.5176 -31.93236,-19.598 -24.49175,-20.8401 -13.1052,7.9362 c 6.71126,4.5145 16.86793,7.6861 21.17707,13.926 34.97729,33.7132 71.64175,26.5263 96.09594,56.7717 38.70265,1.889 62.16274,23.287 102.95766,16.5153 55.3849,-8.1435 -17.83437,8.9238 -12.90553,-29.6246 0,-2.692 -0.16504,-5.2668 -0.43776,-7.7915 10.80289,31.3153 36.99349,35.44 74.60108,13.6951 -23.17689,4.2933 -35.64799,10.627 -23.33339,4.0749 -48.8282,19.5255 -40.3321,-63.5595 -74.09722,-80.2941 -1.67006,-0.6092 -3.61216,-1.0438 -5.67722,-1.4557 z m 79.7731,81.7497 c 4.3487,-1.735 9.1351,-4.2771 14.4643,-7.7499 -7.2127,3.9377 -11.2043,6.0149 -14.4643,7.7499 z m 108.42839,-79.3532 c -0.2902,-0.011 -0.5905,-0.011 -0.8628,0.01 -3.4696,0.4283 -5.7195,6.0822 -3.6756,21.9952 -34.9224,-18.5576 8.8935,1.5023 -25.7086,17.3778 7.966,-42.1419 -4.7064,6.9652 -8.1179,8.0785 -11.8841,3.5953 16.2418,22.844 5.3855,12.732 11.8473,9.9075 8.8697,-19.3285 20.8365,-22.9141 -12.9599,-23.0218 28.8901,-1.6603 11.7606,-21.9175 24.6542,16.1061 9.4423,-14.4278 0.3823,-15.3653 z m 137.8846,32.7978 c -4.85,0.1888 -21.7018,7.4835 -35.0158,15.352 -57.0209,12.6419 5.4097,9.5459 36.9521,0.9395 47.0026,11.083 67.0005,70.3585 102.4424,102.0562 13.3632,20.0545 6.9741,-3.3735 1.6622,-6.3502 -36.4751,-33.9256 -62.6625,-123.151 -123.7237,-96.4689 18.0167,-11.5191 21.4804,-15.6794 17.6828,-15.5286 z m -208.7318,50.7473 c -11.6512,-0.2546 -25.89799,3.8085 -30.52779,15.7291 6.2072,47.7104 35.84929,-21.4231 45.51699,-5.6793 5.7411,-5.2654 -3.3188,-9.8034 -14.9892,-10.0498 z m -216.10608,17.9499 c 37.27003,-1.1478 118.32808,45.0346 175.95949,30.7854 66.91949,-10.3959 0.2819,42.1422 -33.7328,15.6436 -52.5285,-10.6805 -105.84218,-20.257 -142.22669,-46.429 z m 365.30048,14.8349 c 13.2515,9.1858 59.5112,60.1925 32.9124,83.9731 -41.5047,43.3835 -63.5521,117.6167 -131.5417,120.717 -0.2021,0.63 -0.3975,1.1847 -0.606,1.7782 3.1464,-1.9183 7.0871,-2.3827 11.9672,-0.8381 24.1471,32.8591 65.9533,-72.9458 77.7402,-24.475 -11.3099,-13.0437 -4.1069,18.5227 6.4963,22.9774 14.3614,38.7343 -69.3572,15.0717 -74.9509,69.0785 -21.3581,26.742 -37.7029,-31.0449 -28.3808,-56.8697 -11.5768,4.4579 -26.9052,-29.3358 -27.028,-39.0251 40.9784,-61.303 90.314,-117.226 133.3913,-177.3163 z m -106.3633,216.3414 c 2.6462,-1.0213 5.1046,-4.0717 7.128,-9.8731 -3.2023,1.9493 -5.5355,5.4623 -7.128,9.8731 z m 71.3234,-203.8795 c -39.2862,48.5958 -77.0256,99.6482 -115.4208,149.4763 l -1.5196,4.1229 2.1753,-0.6354 c 40.2556,-49.1718 79.767,-99.925 114.7651,-152.9638 z m -193.58499,46.3992 c 8.9371,-0.027 15.7663,8.6009 8.8128,26.191 -37.39158,-15.6744 2.7708,-1.8609 -15.8853,12.2493 -13.65662,6.1993 -24.21452,6.7268 -25.0607,-5.8728 4.25772,-10.5059 -8.4232,-10.5546 11.6259,-12.1852 3.10435,-13.4779 12.62297,-20.3277 20.5073,-20.3823 z m 429.32429,19.2807 c -4.565,3.5179 39.9078,63.4575 54.0735,87.4229 7.426,10.9375 14.3872,22.2562 23.0988,32.2537 -20.4149,-44.7002 -46.4017,-81.5895 -77.1723,-119.6766 z m -184.1034,57.0257 c 84.2769,47.3 164.1015,116.4683 198.3865,209.2388 18.6013,38.1246 -4.3541,92.8938 -42.6315,98.5612 4.7042,6.8778 -6.4743,-1.5267 -4.2009,-2.9068 -13.1937,-40.0033 -22.7299,-84.1687 -41.6738,-115.5027 -14.0947,-26.9392 -46.6472,-63.9188 -78.1228,-78.149 -10.2235,-11.3539 -49.9804,-7.37 -39.9712,-42.3234 -5.1293,-29.9164 -32.0361,-63.0345 8.2137,-68.9181 z m -377.29831,32.8318 c 63.84847,1.4981 128.97342,8.1371 193.26871,12.3063 5.1699,15.0913 -103.34039,-11.3619 -88.18019,10.2872 30.0086,-20.7342 65.692,38.497 30.731,37.4195 43.7746,5.4418 108.65409,-3.4002 125.83739,54.1708 28.2623,65.7138 39.386,-6.4619 58.0264,-34.846 77.3899,-41.8132 7.9703,57.5488 1.3515,91.1852 -25.7106,95.0497 -20.3899,195.8264 -17.1234,292.9947 3.1972,84.2451 6.0624,-21.6934 4.6853,-51.483 2.6278,-50.4954 -6.6347,-105.3916 4.0214,-140.7689 1.3867,-41.6173 5.0374,-62.7362 16.9197,-103.7624 12.2334,-4.7173 -7.5319,28.9244 -7.2166,57.5559 5.8819,-16.878 25.1275,-86.104 38.5787,-121.657 8.133,-5.1448 6.0534,-40.552 33.7497,-23.0758 -39.7841,57.5578 74.7108,78.7278 76.7355,141.3411 -0.4978,37.1159 39.1029,62.826 43.9562,29.1914 35.9492,48.856 -38.904,28.8817 -9.8419,68.676 19.7102,-23.9428 17.4054,-28.5022 23.3629,-3.5731 3.1618,15.0058 5.3422,31.6686 10.9111,47.4183 2.1171,17.0545 10.5819,31.8008 11.4366,54.7626 6.1731,23.7967 10.1669,35.5668 15.4357,61.3659 0.9777,16.8971 23.2195,52.8984 6.7642,68.4823 -35.2445,-3.2542 -17.8378,0.4198 -33.3526,9.6829 31.466,-5.8446 55.0473,3.2355 11.1112,17.4757 -37.2456,14.9627 -16.347,3.0934 -35.3747,-6.3453 34.5365,-17.2695 12.6109,-5.8996 -12.5497,-9.2885 -34.2481,-4.2994 -24.33,31.045 -53.8264,21.128 28.5486,18.2886 -26.2206,16.8438 -52.4847,17.6046 -54.3396,0.6342 1.6764,-7.4293 20.0747,-13.7474 -52.514,-1.0453 -88.0485,36.8962 -99.6436,-25.4934 3.1322,17.2279 -24.3793,-16.3391 -12.7214,14.8532 34.0888,27.2034 -8.8795,34.9075 -12.7113,11.0562 -12.0421,-39.8335 1.1032,9.8414 -10.6333,11.8402 -21.6905,8.2856 -21.3254,-6.3295 -35.7468,-10.7678 -21.7433,-29.6725 -43.2852,-14.0035 -68.99509,-7.3193 11.2522,16.6104 -19.0038,-1.3374 -43.5092,3.3664 20.0171,-5.2833 12.349,-14.4946 -2.8217,-31.5794 -54.31171,6.9583 -46.94388,-73.2084 -58.34305,-113.5246 18.31239,18.4213 6.23946,6.7652 32.51643,21.2338 41.11332,28.1374 20.40902,4.0664 -4.34666,-13.725 -46.44577,-58.9877 -35.50039,37.375 -20.15693,68.4953 -4.48928,52.1391 -33.09495,2.7285 -32.61137,-24.3045 -2.76704,-18.8638 -16.89554,-42.3755 -13.80096,-71.5866 -10.54482,-42.4921 29.84327,5.9582 5.95892,-26.7188 18.75415,4.178 16.44525,-15.56 6.82264,-35.7095 -34.70939,-11.1345 -28.10768,-29.8613 9.56425,-22.175 -6.54466,-30.3578 10.53144,16.7896 31.24631,6.134 -20.27549,-13.4825 -3.84364,-13.7942 -26.05107,-41.6606 -26.14329,-26.1404 -5.0254,-26.8789 6.62502,2.8819 4.69528,1.1532 13.43445,20.6524 18.76271,22.4371 2.36397,12.302 17.37568,24.4016 47.38356,22.3256 45.6499,11.0006 30.5473,48.207 0.9531,19.133 -12.80419,-13.8806 -84.67527,-12.0165 -26.007,-5.6925 21.2111,7.9002 37.477,20.6317 59.327,40.8566 54.48739,40.2372 -44.82201,-41.429 -10.7721,-18.2337 20.5212,11.8394 41.43469,46.6354 66.17859,35.6343 25.736,22.6786 -0.7379,0.6348 10.5985,19.9423 -6.1565,25.906 26.821,46.8505 17.7095,7.7216 -19.8637,-14.2631 19.7588,-100.9382 16.7569,-45.0645 12.4027,14.7719 -8.4592,68.3641 -21.9268,92.0876 -25.874,-9.5787 -39.5181,22.9518 -0.8883,7.5078 14.4817,-34.8026 28.1919,9.146 15.9823,20.4899 -40.9034,8.0884 -22.9258,6.0918 4.8294,5.304 29.2953,65.7332 6.2928,-12.8053 0.3167,-40.2818 3.1201,-41.0373 30.0654,-76.9424 7.028,-113.7318 -6.2975,-50.3364 -4.5147,-102.7916 5.7187,-152.8096 9.0599,-51.2764 -17.6999,33.2508 -13.9735,60.7418 -7.936,61.8126 -3.8595,-12.4345 -12.4243,-27.2563 -10.7315,32.9041 2.3641,83.4953 -10.3401,121.3358 -0.6812,58.7667 -52.53729,-19.6013 -56.89329,-10.2138 13.39279,-25.4718 -4.9167,-20.5853 -20.2071,-10.5876 -10.1251,-18.6293 12.2888,-31.2 26.22147,-60.8886 36.39712,-48.5159 -16.64477,24.0907 3.60242,4.1478 22.4042,-22.6411 39.6924,-52.2151 53.3927,-79.4336 -39.9073,60.6767 -3.3104,-12.9172 2.679,-38.6303 14.9305,-64.7506 -56.7022,-103.8091 -115.23219,-93.6827 -43.60748,-0.2664 -35.20986,-18.1939 -52.8292,-35.8482 32.99557,-28.5795 -5.61687,4.1228 -25.60815,-15.3899 -25.86313,22.0217 -47.7441,1.7148 -57.98737,-31.7178 z m 135.81952,60.013 c -4.0995,-0.5236 -8.0337,-1.1478 -11.71787,-1.9855 4.58957,1.279 8.43917,1.8646 11.71787,1.9855 z m 26.4881,-39.6747 c 22.6379,-0.7897 82.74929,23.5338 58.40499,39.334 -18.7048,8.6953 -28.84379,-48.1813 -66.57139,-34.3668 -0.2713,-3.2652 2.9568,-4.7867 8.1664,-4.9672 z m 3.7424,11.1009 c 9.5617,-0.3456 21.5257,3.9156 27.81679,16.1958 14.6393,16.6143 -11.07019,8.3145 -17.89849,8.8367 -35.0459,-10.9151 -25.8341,-24.4263 -9.9183,-25.0325 z m -78.66876,52.6967 c 20.24746,0.3455 43.77486,7.105 67.18446,7.0297 53.92369,-8.7583 44.27269,33.277 12.4308,59.025 -17.2449,44.008 -66.05758,55.5514 -82.03948,76.7832 -3.06216,4.3282 -9.21247,4.4863 -13.76613,3.0998 -28.64129,-10.4791 -128.8738,5.142 -97.72048,-40.1002 -1.05666,9.2815 2.00357,-4.0919 9.64682,-8.8781 22.23583,-25.27 45.40359,-70.1651 67.46674,-83.4987 8.898,-9.7611 20.12414,-13.0896 32.79051,-13.4364 1.32626,-0.016 2.66046,-0.021 4.00676,-0.013 z m 314.70475,8.7618 c 7.1847,-0.3587 68.6883,37.9166 50.1386,54.2661 -10.3153,0.2714 -22.5462,15.1252 -13.8765,-5.4019 -25.4337,9.0517 1.8844,-17.4025 -20.3708,-33.4035 -14.6466,-10.9423 -18.2897,-15.3485 -15.8913,-15.4607 z m -198.8752,3.2802 c 54.5558,26.6353 38.5324,88.1456 2.207,123.5934 -25.01699,46.9564 -63.63969,68.5809 -91.85546,108.4221 -13.06081,24.8206 -32.48901,-33.7314 -44.5795,-39.7579 -29.52785,-36.9459 27.57515,-46.814 52.75538,-35.4512 -19.19641,-24.8104 10.94459,-15.9577 -28.06919,-17.6663 -3.75094,-6.5568 8.69924,-25.1131 26.68881,-16.3708 30.29897,29.4332 -9.49123,16.7676 1.5132,34.1059 3.06967,1.3925 5.69257,3.101 7.58367,5.1258 4.9291,-43.8315 32.6118,-85.1025 67.27469,-126.2292 27.5371,-43.7415 4.6465,-11.4103 -11.62579,10.7 -11.6004,10.1068 -68.11367,96.4756 -45.7562,54.2169 20.8855,-30.9891 65.81429,-73.7292 63.86339,-100.6887 z m -81.33976,156.8752 c -0.0258,0 -0.0622,-0.016 -0.10114,-0.025 0.25476,0.3153 0.40988,0.5675 0.67704,0.8962 -0.2048,-0.2921 -0.36373,-0.5596 -0.54326,-0.8371 z m 4.45447,-118.7389 c -27.24296,-0.8912 -68.09649,40.1434 -37.00226,48.407 7.8174,0.503 15.63272,1.1372 23.47551,1.2691 26.74615,-33.2462 4.68184,0.5806 -20.34579,-4.0743 -27.70391,-0.4223 13.31684,-35.6842 17.20978,-37.5698 39.07736,-19.2142 12.30695,37.6773 34.47226,4.1983 -3.618,-8.4536 -10.1751,-11.9779 -17.8095,-12.2303 z m 351.54039,43.2438 c 11.4833,-0.7043 36.9293,60.5896 26.1891,81.6158 -11.7736,10.0759 -7.5338,0.3371 -4.5704,-5.9823 -23.2766,-28.4528 -7.6586,-24.6771 -26.571,-50.4698 -1.1373,-17.8118 1.1275,-24.93 4.9523,-25.1637 z m -244.2094,13.4423 c -6.3298,11.1982 -11.2926,22.9313 -8.4474,28.3666 -8.3803,37.3875 -57.82279,84.8315 -65.50839,102.1063 3.2534,10.1038 -20.3968,-11.0784 -24.504,-11.9108 12.9775,-1.1099 30.5716,16.1596 8.5563,-11.6524 14.9778,11.5638 18.8031,-15.2186 24.8771,-16.7001 23.55409,-27.5771 15.2686,-25.9696 39.26169,-50.5134 -3.7352,-2.9828 14.2234,-20.9089 25.7647,-39.6962 z m 139.5243,2.3972 c -6.6082,-0.053 -11.2344,4.2037 -12.099,14.9655 -16.1387,29.5318 60.106,60.6218 57.5566,106.0187 25.7183,18.5006 28.8387,-33.6889 19.6216,-47.553 -0.8895,-25.2137 -43.5033,-73.0204 -65.0792,-73.4312 z m -434.9434,37.1416 v 0 c 11.517,0.2163 18.87121,5.6721 6.58958,21.2593 -1.78325,5.5665 -11.96472,-0.6566 -16.15303,0 -45.475,-4.174 -14.16392,-20.4458 7.1956,-21.2349 0.80204,-0.013 1.59105,-0.016 2.36785,-0.013 z m 100.81463,10.2124 c 14.21471,-0.031 25.65711,4.7785 17.60971,18.3159 -6.6229,16.6573 -22.86313,4.8498 -34.25851,5.7749 -38.41079,-10.1574 -7.04039,-23.9643 16.6488,-24.0908 z m 380.89737,12.7292 c 10.1111,-0.193 22.931,30.3656 13.7257,53.8988 l -6.353,2.813 -3.4382,-0.347 c 4.431,-18.2065 -1.0272,-20.8905 -13.6981,-33.4527 1.1525,-16.3546 5.1766,-22.8111 9.7636,-22.9121 z m 99.177,73.7156 c -10.7146,0.3647 -25.3503,13.6628 -6.9674,27.6091 -0.2857,3.8735 6.4968,1.4585 7.5179,0.7857 13.7662,-21.1294 7.789,-28.6662 -0.5505,-28.3948 z m 237.5638,9.4376 c 6.372,13.6568 13.0919,27.1636 20.0313,40.5477 l 3.7155,-2.3592 c -7.8202,-12.8057 -15.7201,-25.5395 -23.7468,-38.1885 z m -426.4182,6.2309 c -7.9199,0.4663 -14.4834,7.8433 -9.3641,26.5248 l 5.5107,7.2933 6.8272,1.0208 c 27.14,-17.2113 10.2024,-35.6101 -2.9738,-34.8389 z m 195.8816,19.9351 c -8.8955,-0.2094 -18.2963,8.5862 -8.7775,27.3182 l 5.9408,1.6764 8.5555,-2.142 c 11.552,-17.4019 3.1717,-26.644 -5.7188,-26.8526 z m -423.50451,12.7805 c -3.89934,0.031 -7.34342,0.9766 -10.14644,2.8906 -21.15431,40.1788 54.41906,63.4489 62.07896,73.8449 64.33109,-0.8895 -14.3563,-77.5427 -51.93252,-76.7355 z m 429.55381,22.306 c -7.9146,-0.062 -14.3456,6.9845 -6.6196,28.4714 37.1191,-7.8176 19.7998,-28.2333 6.6196,-28.4714 z m -94.7021,64.5352 c -15.6352,0.2596 -32.7502,3.6756 -45.1088,8.6893 -34.0907,3.5856 -1.0018,27.6252 -2.8634,41.6979 6.7558,13.2024 24.9957,12.806 34.3553,4.1373 33.9913,11.1081 34.3738,-67.442 42.8778,-10.3592 24.8889,-33.5674 0.5535,-44.6453 -29.2609,-44.1653 z m -376.80828,98.0681 c 26.34903,22.0902 76.33009,22.9271 98.54489,36.4267 111.33899,14.6145 224.99599,11.4002 336.48109,0.253 28.6053,2.9738 116.0691,-60.1742 81.0505,1.8136 -30.9139,4.8864 -92.1638,25.2444 -135.5393,24.6974 -104.5265,8.529 -211.2482,6.24 -314.19869,-15.0887 -32.86258,-14.8859 -76.13083,-6.2008 -66.33849,-48.102 z m 0.25566,38.2093 c 30.83841,6.1069 97.07613,30.1439 144.12232,30.2824 117.2292,9.1035 238.6299,15.2197 353.098,-16.3341 45.6279,-30.9764 19.2808,9.9293 -11.4887,14.624 -39.0288,9.9447 -80.7722,16.0587 -124.0257,19.975 -59.3136,2.7292 -118.7752,3.2219 -178.0025,-0.9764 -62.08679,-7.9697 -133.44641,-5.6132 -183.70342,-47.5709 z m 930.56142,11.2792 -14.2491,13.2771 c 1.7782,11.8092 -0.9763,23.2349 -11.4432,33.8891 -20.6291,14.0689 -33.1197,10.507 -41.7032,-1.1845 l -13.4573,5.0877 c 5.5113,10.0565 11.3501,19.6823 17.8564,28.5284 48.5175,15.7688 102.2806,-46.5596 62.9964,-79.5978 z"
       style="opacity:1;fill:#ffffff;fill-opacity:1;fill-rule:nonzero;stroke:none;stroke-width:3.10694" />
    <path
       id="path66"
       d="m 610.53554,1224.5668 c 12.34404,27.3948 40.4279,48.6048 66.3608,46.7889 9.78332,-6.0652 20.4035,-28.3436 34.29969,-11.6709 26.77227,29.1778 66.39799,46.4728 99.09189,37.2562 12.11013,-1.5392 30.37561,21.685 37.22325,4.0659 9.98783,-20.5979 19.33297,-41.726 28.38647,-62.9978 -6.43088,-17.8485 -24.29693,-30.6535 -24.60337,-50.5268 -19.97314,-57.1213 -78.19301,-103.2856 -130.11162,-96.7209 -13.47224,1.4181 -22.36779,14.3746 -36.01927,13.8765 -15.02441,3.814 -24.115,-19.7855 -40.13508,-17.3948 -17.85116,0.025 -25.46351,-21.7261 -20.64499,-36.6048 5.55824,-7.9828 -3.77434,-15.5932 -6.13017,-5.0215 -3.65045,15.3872 5.14859,33.2848 -4.94943,46.2937 -3.51942,7.0396 4.84121,19.001 4.89114,5.8557 -0.4254,-8.0517 14.35701,-16.9808 11.85602,-3.8842 -3.85974,6.0337 -2.0969,18.7623 -9.75636,16.9476 1.35864,7.5072 8.23991,5.6936 4.27206,13.4161 -1.05685,10.3074 7.55989,13.883 12.48664,8.4786 18.75012,8.7089 0.78961,22.1121 -8.04643,26.2368 -13.14225,8.9443 -28.67728,21.4469 -25.42368,42.3097 0.98159,7.9251 3.6405,15.7938 6.95244,23.296 z m 2.81539,-4.355 c -4.50146,-5.8271 -3.38326,-18.1085 -0.26747,-5.1448 0.93589,2.3611 3.95886,13.6489 0.26747,5.1448 z m 14.39387,21.9648 c -5.67904,-18.3472 17.43002,9.583 3.85957,0.9727 -0.93308,-0.6266 -2.93622,-2.1836 -3.85957,-0.9727 z m -16.66152,-53.7497 c 4.15104,-11.3096 12.24432,13.6764 2.00018,0.7894 -0.13206,-0.421 -2.98488,0.498 -2.00018,-0.7894 z m 28.12078,60.521 c 5.06035,0.2102 10.79918,-7.3694 7.43739,2.3076 5.645,5.4043 15.25478,0.2648 7.63384,7.4061 -5.15682,0.8854 -9.92707,-8.2956 -15.07123,-9.7137 z m -4.26059,-23.1435 c 9.62245,-1.2673 10.44905,13.7677 1.86778,2.7541 -0.63038,-0.9216 -1.24889,-1.8366 -1.86778,-2.7541 z m -19.1287,-47.3713 c 3.94493,-10.4633 22.59973,3.206 15.91061,5.3033 -4.369,-11.2902 -7.46314,2.8078 -13.73557,-4.8325 z m 9.153,-9.8646 c 9.01668,-11.1276 30.43436,-15.4357 29.98766,-32.6525 2.07552,-9.546 -2.34311,-27.2064 12.09799,-28.3398 13.86041,9.7716 -18.00763,23.5471 -2.24353,31.2578 24.17595,-0.6804 47.93952,22.199 57.22372,47.4238 3.5322,15.6114 -14.62475,20.621 -11.99287,37.5716 4.98918,17.7491 16.18955,-6.4999 20.3903,-11.9357 5.08593,-7.2109 26.73535,0.9909 15.03737,-15.8238 -11.52908,-12.176 -6.63953,-31.4616 -18.95799,-44.4639 -7.74213,-15.9446 -28.65163,-19.222 -35.25385,-32.9837 4.23492,-15.9506 23.71205,-14.8421 37.12451,-14.7227 51.56446,2.1254 102.47907,52.4118 116.63011,108.3674 5.0867,7.9958 5.7426,21.1763 -5.85014,12.3064 -14.66278,-3.2029 -24.39715,9.8348 -31.60325,20.491 -12.35452,13.8851 12.87646,46.7371 -9.10356,49.6236 -33.07045,1.8105 -67.6475,-18.4028 -93.07409,-46.192 2.13824,-13.5819 -18.09425,4.8397 -11.44211,-10.4173 -0.73121,-21.599 -16.32447,-40.4071 -30.50957,-55.8369 -11.07084,-9.6638 -25.92442,-14.362 -38.4607,-13.6733 z m 41.40851,93.631 c 11.07935,4.6908 22.98504,-12.4624 22.67086,-14.9856 -0.60901,10.4969 -12.74397,23.2831 -22.67086,14.9856 z m -7.779,-19.9161 c 5.13151,-4.7753 4.08857,8.4479 0,0 z m -21.1901,-56.5024 c -2.77965,-13.7506 20.08314,-4.6918 13.53052,-3.1195 -8.72624,-6.9256 -7.20686,6.9531 -6.12988,6.1378 -9.20858,4.0106 -2.69317,-4.7715 -7.40064,-3.0183 z m 12.24461,18.3155 c -1.96604,-8.581 -1.55355,-13.6909 4.36876,-4.6227 4.84289,4.2048 -0.43524,11.0065 -4.36876,4.6227 z m 30.02452,61.2545 c 0.41387,-1.5297 0.51062,0.9969 0,0 z m -19.76874,-60.3036 c -1.04413,-7.6467 2.3643,3.1407 0,0 z m 3.93063,3.1727 c -1.9634,-6.7712 10.43921,-15.1412 3.39859,-4.7814 2.2592,8.2233 18.92112,9.812 15.58491,18.5308 -5.23234,-7.5783 -17.08852,-11.5195 -17.51392,-16.7956 l -0.61878,1.2339 z m -48.69198,-110.1666 c 1.14386,-1.0441 0.73103,2.0759 0,0 z m 15.03833,15.4547 c -4.42716,-7.7415 8.04628,-16.8793 1.59047,-5.0373 -0.49801,1.7019 -1.04407,3.3598 -1.59047,5.0373 z m 61.1557,131.1398 c 0.50937,-1.6638 0.99466,1.4062 0,0 z m -70.45228,-182.9737 c 0.31711,-1.6496 1.10655,1.5037 0,0 z m 86.25348,172.2684 c 9.40509,7.8871 0.18051,-11.7143 0,0 z m 5.08587,-5.1515 c 0.49789,-1.4684 1.09095,1.601 0,0 z m -41.9674,-103.4167 c 0.89761,-8.7195 6.9908,-5.352 0,0 z m 2.9975,4.7668 c 6.55263,-5.9816 24.36812,4.5449 25.41218,6.2979 -8.21418,-3.9287 -17.07581,-7.8379 -25.41218,-6.2979 z m 1.17798,-12.8807 c 0.84767,-5.7208 3.96779,0.2892 0,0 z m 78.78775,146.6414 c 3.72554,13.2024 20.08597,1.3695 22.20836,13.7554 14.01854,-0.2691 7.19852,-24.4096 16.87079,-32.128 6.46886,-19.5124 12.91146,-39.1014 21.0421,-57.6005 10.93739,-12.5701 -12.29272,-15.4205 -14.17342,-27.3438 -15.77685,-10.8806 -20.31519,12.3064 -22.45343,23.833 -5.93372,12.9057 -8.71212,27.0794 -13.77242,40.3631 -0.10058,14.5135 -11.67536,24.3793 -10.96137,37.2373 z m -47.08754,-111.6303 c 15.5564,3.101 24.55018,36.8103 21.60243,39.2895 -4.00614,-14.3376 -10.52283,-28.9744 -21.60243,-39.2895 z m 51.51877,111.3228 c -3.39995,-11.7607 12.54781,13.9002 0,0 z m -53.94856,-123.3222 c 14.96578,3.7269 24.63703,21.6258 29.01846,36.4843 2.0162,6.1169 0.7883,17.5861 -1.28592,4.6662 -4.4654,-16.1573 -14.60015,-31.3347 -27.73254,-41.1505 z m 59.32328,121.1637 c -3.09402,-4.664 3.77428,1.2113 0,0 z m 3.7373,5.3349 c 6.82285,-2.4694 -6.72316,-18.4014 3.03596,-7.963 1.43106,3.3975 -0.377,6.9296 -3.03596,7.963 z m -4.43004,-20.6899 c 9.45332,-5.7435 8.26703,13.4719 0,0 z m 3.66593,-6.3248 c 8.9072,-3.1978 10.38956,9.8746 0,0 z m 11.01972,18.2142 c -2.98599,-10.3598 10.26848,-22.5664 3.26513,-28.8132 15.15916,0.041 4.71996,-25.4025 16.06982,-29.7345 2.53478,-4.6942 3.10688,-26.6107 6.48034,-12.1981 -7.31964,14.6702 -11.94324,31.0134 -16.73763,47.2145 -3.84513,7.4994 -5.76571,16.0349 -9.07766,23.5313 z m -5.29069,-26.3471 c -0.43812,-8.9174 10.6313,8.9588 0.13997,0.169 -1.56551,-0.5527 -2.36756,-0.7178 -0.13997,-0.169 z m -58.88516,-132.9617 c 41.56755,-13.2024 92.96416,17.0517 119.50565,60.4313 10.63438,15.4887 13.81226,33.8246 21.08164,50.4592 5.46227,8.4275 -3.08378,14.9957 9.57691,17.4067 10.88236,4.7767 6.16472,19.2849 -2.21264,6.5279 -8.90573,-10.1051 -10.39997,-24.1892 -15.70323,-36.1885 -10.51198,-30.4369 -31.34945,-57.5442 -56.8594,-75.2092 -23.09319,-18.1894 -51.4818,-27.0277 -76.71199,-22.9375 l 0.67996,-0.2381 h 0.005 l 0.64326,-0.2518 z m 58.48402,118.6614 c 5.06167,1.8621 17.75587,10.7053 5.08587,5.4079 -2.03988,-1.2868 -3.84954,-3.1949 -5.08587,-5.4079 z m 6.14283,-3.196 c -1.26482,-10.1139 6.28528,9.0533 0.0298,0.4906 z m -1.97882,-10.2904 c -1.41993,-7.7405 3.39847,0.3409 0,0 z m 38.00935,79.6936 c 3.2024,-4.5598 4.43024,-10.9329 -2.38998,-7.314 -4.39256,-3.4169 -1.84452,-14.1531 1.43328,-5.201 9.68412,-3.1267 -1.8718,-13.8334 -3.2778,-12.9386 0.30344,-11.909 20.70489,-28.359 26.03279,-12.8241 -4.28316,13.6917 -8.14526,29.2611 -18.47067,36.7397 -0.86406,3.4281 -0.50046,9.3936 -3.32762,1.538 z m -34.29619,-77.0713 c 6.56392,-5.1375 5.27784,11.3366 1.10524,0.4548 l -0.40114,-0.061 z m 34.97625,71.3546 c 0.20524,-1.1812 0.61948,0.5529 0,0 z m 8.28988,16.9992 c 5.41136,-2.0463 28.05719,2.4419 13.46993,7.1388 -4.60872,0.027 -11.18946,-1.3092 -13.46993,-7.1388 z m -40.19761,-100.163 c 9.27409,-0.8617 10.86447,4.3521 0,0 z m -0.009,-9.9216 c 3.79648,2.4768 15.99394,-2.592 11.30912,2.7298 -3.67549,-1.9347 -8.49416,2.0813 -11.30912,-2.7298 z m 36.34725,65.4247 c 10.59524,7.792 0.93369,-12.5962 0,0 z m 16.78216,25.7663 c 0.21912,-6.5759 1.89786,1.6588 0,0 z m -47.6087,-109.0027 c 3.29921,-8.3456 16.03117,9.2113 4.71007,1.2299 -1.2989,-1.3925 -3.31504,-2.0427 -4.71007,-1.2299 z m 56.54267,121.9416 c -1.90605,-7.5481 13.30186,-26.7654 7.52197,-9.9382 -2.24367,2.6971 -3.00749,11.406 -7.52197,9.9382 z m -75.72009,-176.7101 c 0.33855,-1.0233 0.59642,1.1466 0,0 z m 31.03112,64.8938 c -3.39592,-9.5266 5.4031,-5.9329 0,0 z m 25.35515,56.1557 c 11.4317,-5.6412 26.94196,0.2893 36.57824,11.1614 6.84545,11.7258 -6.06658,26.2962 -11.11817,8.5231 -7.14701,-5.0124 -10.18397,-15.1934 -0.0427,-6.8277 6.77329,7.0101 14.51529,3.9216 4.74525,-3.3811 -9.00587,-7.5505 -20.13436,-9.6062 -30.15767,-9.4757 z m 15.10984,32.622 c 0.76396,-9.1596 7.48667,-6.7143 0,0 z m -49.17741,-152.1205 c 0.4724,-1.6028 0.94476,1.6509 0,0 z m 3.45828,1.6509 c 0.27924,-1.1544 0.81396,0.8627 0,0 z"
       style="opacity:1;fill:#ffffff;fill-opacity:1;fill-rule:nonzero;stroke:none;stroke-width:3.10694" />
    <path
       id="path67"
       d="m 1603.4774,1749.4155 c -25.0372,0.4466 -49.787,6.4566 -72.9586,16.2385 l 1.3373,4.4152 c 12.7784,-5.3514 26.0373,-9.4945 39.6501,-12.2059 13.5229,-2.7056 27.3519,-3.8593 41.1315,-3.6939 23.426,0.6546 46.9153,7.9427 65.7038,22.1223 12.2309,9.2113 22.1304,21.6514 27.733,35.9689 -1.2719,4.4199 1.8231,9.3248 6.0221,10.8124 1.3314,0.5554 1.5925,-1.0975 1.2862,-2.0152 -0.8517,-3.7468 -2.7298,-7.1694 -4.155,-10.7106 -2.415,-5.407 -4.614,-10.9348 -7.8425,-15.9214 -5.9074,-9.5013 -13.7832,-17.7022 -22.7547,-24.2521 -13.1969,-9.6568 -28.6797,-15.7761 -44.7449,-18.4441 -7.868,-1.3747 -15.7119,-2.1081 -23.6684,-2.3076 -2.2496,-0.021 -4.4874,-0.027 -6.7399,-0.013 v 0 z m -140.1438,58.6487 c -4.2423,3.2814 -8.2648,6.7944 -11.5985,11.0497 -1.9121,2.5416 -3.7708,5.4045 -4.6621,8.3522 1.8628,0.9103 3.7286,-0.7667 5.2162,-1.7573 4.9862,-3.9202 8.9738,-8.8714 13.4416,-13.3354 z m 241.9601,20.6583 c -3.3284,-0.5553 3.965,10.7553 13.0201,13.6188 12.2291,9.2155 22.1446,21.6779 27.735,35.9742 -1.262,4.4357 1.8153,9.3246 6.0135,10.8129 1.3308,0.555 1.5761,-1.0953 1.3053,-2.0174 -0.8612,-3.7321 -2.731,-7.1652 -4.1681,-10.7303 -2.4138,-5.3835 -4.5985,-10.899 -7.8419,-15.9007 -5.9092,-9.5018 -13.7826,-17.6964 -22.7533,-24.2487 -13.1853,-9.6578 -8.304,-3.5491 -11.2156,-6.4821 -0.9365,-0.629 -1.6223,-0.9457 -2.095,-1.0267 z m -130.106,5.9078 c -1.7386,-0.015 -3.5188,0.2591 -5.1507,0.9444 5.2524,5.6323 12.5729,9.4179 16.2482,16.4255 2.0984,3.7816 2.2012,8.3932 1.0213,12.4387 -3.7268,17.5433 -18.0243,31.8281 -34.9855,36.973 -3.1408,1.0454 -6.4251,1.4929 -9.6454,2.0968 -6.9365,2.9948 -15.3348,2.1081 -21.4762,-2.317 -11.9136,-8.6461 -11.1767,-19.1436 -15.7171,-26.1228 -1.7814,6.0904 -1.5231,12.7797 0.6373,18.7308 0.6501,4.9632 4.5586,8.5368 8.2586,11.5002 6.8277,5.2754 15.5671,7.6797 24.149,7.4528 7.5509,-0.1895 15.0609,-2.2582 21.8067,-5.8575 4.2541,-2.5718 8.8217,-4.621 12.8568,-7.5841 9.5831,-6.7655 17.8669,-16.4554 20.2373,-28.2071 0.9378,-4.2559 0.7758,-8.6636 0.2072,-12.944 0,-7.9459 -3.8396,-15.9196 -10.2398,-20.6746 -2.3599,-1.7592 -5.2701,-2.7784 -8.2097,-2.8551 z m -141.2121,7.4966 c -1.3195,1.1787 -1.1876,3.412 -0.7071,4.9933 0.6736,0.7084 1.4436,-1.2677 1.8883,-1.7903 0.8907,-1.0981 1.0172,-2.2572 -0.421,-2.915 -0.2175,-0.052 -0.4715,-0.313 -0.7602,-0.288 z m 270.9025,8.1639 c -0.3225,1.3176 -0.662,2.6543 -0.9971,3.9851 -6.5331,24.9813 -16.0842,49.6048 -31.599,70.4612 -31.9141,39.5578 -76.4713,68.5465 -125.2567,82.6443 -2.731,0.9141 -6.1982,2.4149 -6.6336,5.6609 0.01,3.7779 3.858,6.193 7.2132,6.8237 2.8555,0.5772 5.776,-0.2257 8.2166,-1.6764 39.8102,-8.7666 76.1285,-30.6442 104.8657,-59.2218 4.1104,-4.0712 8.0713,-8.2996 11.8591,-12.6547 2.8878,-1.5013 4.2547,-4.7288 5.9271,-7.37 2.2012,-3.6502 3.7563,-7.7179 6.4565,-11.0467 0.9216,-1.241 2.9626,-0.6676 3.0956,0.8835 0.4994,2.2845 0.052,4.5958 -0.4425,6.8225 -0.7629,3.7878 0.011,8.3777 2.8629,11.3662 6.111,6.6341 15.8193,8.3183 21.8253,15.0425 1.2899,1.4383 2.2077,3.1658 2.7836,5.0012 -23.0965,42.1216 -62.9815,74.3831 -108.5617,89.2507 -4.2069,2.0046 -8.9468,2.4701 -13.4385,3.5806 -3.6668,0.9446 -7.6407,1.443 -10.8069,3.6839 -1.1026,1.0299 0.7268,2.1255 1.4894,2.6593 1.1596,1.2042 2.7102,0.041 4.098,-0.032 26.5057,-6.383 51.9835,-17.4013 74.371,-33.1216 4.7803,-3.4819 9.7542,-6.9907 14.2939,-10.7524 18.9511,-15.9581 31.9677,-37.3661 46.9063,-56.8235 2.9336,-3.8961 6.0589,-7.6453 9.2571,-11.344 -5.3789,12.973 -11.9915,25.4132 -20.4093,36.7219 -31.921,39.5673 -76.4783,68.5354 -125.2571,82.6496 -2.7298,0.9119 -6.2184,2.4153 -6.6193,5.6548 0,3.7745 3.8588,6.1898 7.2127,6.8195 2.8374,0.5852 5.7772,-0.2115 8.2137,-1.6739 39.7966,-8.7604 76.1289,-30.6323 104.8685,-59.2122 4.0914,-4.0747 8.0397,-8.2996 11.8585,-12.6568 2.8896,-1.5071 4.2376,-4.7347 5.9146,-7.37 2.2018,-3.6498 3.7517,-7.7176 6.4565,-11.0278 0.9335,-1.2653 2.962,-0.6951 3.0885,0.8711 0.5047,2.2685 0.057,4.5898 -0.4223,6.8065 -0.7779,3.8002 0.011,8.3904 2.8617,11.3725 6.0919,6.6275 15.8068,8.3144 21.8087,15.0493 1.2862,1.4335 2.2143,3.1589 2.7797,4.9902 -23.086,42.1219 -62.977,74.3973 -108.5616,89.2634 -4.2001,2.0001 -8.9465,2.4616 -13.428,3.5761 -3.6545,0.9483 -7.6408,1.444 -10.7945,3.6794 -1.1032,1.0318 0.7091,2.126 1.4757,2.6686 1.1544,1.1904 2.7245,0.037 4.0914,-0.031 26.5247,-6.3979 51.9823,-17.4144 74.371,-33.1329 4.7965,-3.4814 9.7411,-6.9895 14.2808,-10.7524 18.972,-15.962 31.9833,-37.3673 46.9213,-56.8212 2.6478,-3.5102 5.449,-6.8948 8.2904,-10.2319 -5.2832,12.5484 -11.7654,24.5616 -19.9239,35.5331 -31.9142,39.5776 -76.4697,68.5479 -125.252,82.6489 -2.7292,0.9264 -6.2149,2.4153 -6.6347,5.6566 0,3.7742 3.8557,6.191 7.2102,6.8228 2.8551,0.5798 5.7796,-0.2002 8.2207,-1.6758 39.8092,-8.7643 76.1247,-30.6215 104.8603,-59.213 4.0979,-4.0773 8.0569,-8.3018 11.861,-12.6571 2.8906,-1.4936 4.2553,-4.7377 5.9262,-7.368 2.2061,-3.6406 3.7566,-7.7207 6.455,-11.0334 0.9215,-1.2619 2.9666,-0.6931 3.0984,0.8768 0.4959,2.2821 0.052,4.587 -0.4448,6.8074 -0.7607,3.8125 0.011,8.3866 2.8651,11.3709 6.1082,6.6264 15.8165,8.314 21.8266,15.0466 1.2666,1.4348 2.205,3.1568 2.7808,4.9897 -23.0948,42.1294 -62.9983,74.407 -108.5626,89.2611 -4.218,2.0162 -8.9471,2.4646 -13.4286,3.599 -3.677,0.9278 -7.6484,1.4404 -10.8136,3.6702 -1.1026,1.0192 0.7109,2.1144 1.4888,2.6617 1.1609,1.1876 2.7108,0.041 4.0973,-0.032 26.5057,-6.3931 51.9817,-17.4136 74.3706,-33.1301 4.7783,-3.4847 9.7415,-6.9932 14.2801,-10.7564 18.9715,-15.954 31.9659,-37.3647 46.9136,-56.8202 4.3379,-5.7498 9.0557,-11.261 13.8391,-16.624 5.688,-13.3623 9.6796,-27.9744 8.5437,-42.6734 -0.5747,-6.9775 -2.3836,-13.9816 -5.8226,-20.1072 -3.6976,-3.6937 -9.3693,-3.5079 -14.1991,-3.074 -4.2952,0.058 -8.8676,1.7375 -12.9667,-0.2782 -3.4782,-1.6763 -4.2731,-5.9229 -4.1336,-9.4183 0.031,-6.1267 2.0617,-12.1101 0.883,-18.1907 -0.3595,-1.858 -1.6212,-3.4478 -3.2803,-4.2606 0.2665,-3.5425 0.3177,-7.0884 0.016,-10.6571 -0.5694,-6.9906 -2.39,-13.9788 -5.8235,-20.111 -3.6924,-3.6975 -9.3837,-3.5057 -14.201,-3.0689 -4.2938,0.062 -8.8717,1.7362 -12.9549,-0.2774 -3.4801,-1.6752 -4.2745,-5.924 -4.1307,-9.4179 0.031,-6.1306 2.0492,-12.1099 0.8754,-18.1921 -0.3903,-2.0275 -1.8594,-3.7489 -3.7689,-4.4917 0.2711,-3.4834 0.3074,-6.9756 0.011,-10.4991 -0.5669,-6.9907 -2.3741,-13.9785 -5.8259,-20.1095 -3.6872,-3.7018 -9.3698,-3.506 -14.1821,-3.0818 -4.3007,0.072 -8.8715,1.7473 -12.9791,-0.2632 -3.4694,-1.6804 -4.2672,-5.9264 -4.1097,-9.4217 0.027,-6.1278 2.0481,-12.1118 0.8709,-18.1906 -0.4605,-2.3307 -2.3147,-4.2711 -4.662,-4.7587 z m 44.9242,49.1271 c -1.8071,0.166 0.9929,3.1534 7.9971,8.9215 12.2337,9.2185 22.1303,21.6567 27.7236,35.9551 -1.2626,4.4336 1.8347,9.345 6.0259,10.8142 1.3183,0.5724 1.5838,-1.085 1.294,-2.0054 -0.8652,-3.7463 -2.7298,-7.1804 -4.1557,-10.7249 -2.4149,-5.4032 -4.615,-10.9185 -7.8424,-15.9071 -5.9091,-9.5013 -13.7967,-17.7102 -22.7546,-24.2482 -4.4643,-1.9655 -7.209,-2.9049 -8.2919,-2.8052 z m -347.3708,53.119 c -1.3695,0.163 -2.4216,1.3859 -2.3397,2.8301 0.011,5.2772 2.345,10.1805 3.9596,15.1377 1.1408,3.5249 2.7101,7.0914 2.6354,10.8824 -0.6105,3.6626 1.1478,7.2266 2.6911,10.4511 1.4769,2.5545 2.9691,5.4667 5.6438,6.9543 0.8193,0.057 0.7196,-1.3348 0.852,-1.8688 0.041,-2.348 2.9057,-4.1675 5.0617,-2.9775 3.7012,1.8535 6.1343,5.3782 8.9651,8.2589 2.7812,2.8438 5.5164,6.3747 9.6589,7.086 6.0155,2.044 9.9193,7.402 13.9353,11.9988 2.8918,3.2475 5.621,7.1367 9.9007,8.6251 1.2565,0.3456 2.6438,0.195 3.8046,-0.3858 -1.3897,-1.8659 -3.3593,-3.7327 -3.4366,-6.1966 0.2524,-2.0742 2.7816,-1.9935 4.3261,-1.6453 6.4489,1.2791 12.6532,4.0646 19.2647,3.6121 0.81,-0.1486 2.1513,-0.2173 2.5683,-0.762 -2.8563,-3.3497 -7.4021,-4.3103 -11.4436,-5.4647 -8.3462,-2.2472 -17.1863,-3.2685 -24.878,-7.417 -1.7851,-1.0017 -3.2976,-2.3894 -5.2399,-3.0938 -14.1478,-7.0075 -25.0664,-19.1303 -33.1469,-32.4746 -3.3635,-5.5369 -6.3273,-11.3267 -9.025,-17.2095 -0.2393,-0.032 -0.5885,-1.0774 -0.5885,-1.3025 -0.7613,-1.66 -1.4607,-3.3478 -2.193,-5.0194 h -0.3734 c -0.2042,-0.013 -0.414,-0.013 -0.6027,0 v 0 z m 251.8193,3.877 c -0.6294,0.8736 -1.2619,1.7838 -1.8861,2.6727 -1.7088,2.3714 -3.8574,5.1486 -7.0057,5.4365 -1.8148,0.041 -2.3315,-2.2832 -1.101,-3.3878 2.5908,-2.7986 6.5377,-3.5114 9.9928,-4.7214 z m -19.1798,13.858 c -0.4161,0.8378 -0.8195,1.6764 -1.2299,2.5147 -1.2659,1.4442 -2.9756,2.8373 -4.1032,4.1984 1.3641,1.2166 0.7357,4.6016 -1.4638,4.1556 -0.7886,-0.1847 -1.2856,-0.8954 -1.729,-1.5315 -14.0446,11.5248 -31.0492,18.5544 -47.7938,25.1684 -1.0213,-0.1757 -3.5124,0.3142 -1.6845,-1.0469 1.2113,-1.677 3.4737,-1.9348 5.1809,-2.937 16.8425,-7.7939 33.0633,-17.2642 48.1452,-28.1821 1.3427,-1.2114 2.9431,-1.8995 4.6781,-2.3396 z m -192.0633,48.3172 c -1.6389,-0.1847 -3.0504,1.1811 -2.9436,2.8333 0.011,5.276 2.3581,10.2011 3.9401,15.1386 1.1734,3.5214 2.7447,7.1052 2.668,10.8878 -0.6236,3.6532 1.1276,7.2185 2.6786,10.4454 1.4745,2.5629 2.9639,5.4617 5.6432,6.9451 0.8201,0.063 0.7125,-1.3272 0.8633,-1.856 0.041,-2.356 2.8944,-4.1735 5.0629,-2.968 3.6806,1.8379 6.1159,5.3633 8.9531,8.2445 2.7596,2.8564 5.5084,6.3753 9.6602,7.0888 6.0072,2.0399 9.9169,7.3992 13.9329,11.9948 2.8924,3.2487 5.6359,7.1382 9.8971,8.6258 1.2589,0.3468 2.6485,0.2078 3.8017,-0.3836 -1.3682,-1.867 -3.3378,-3.7321 -3.4354,-6.1977 0.2578,-2.0752 2.7816,-1.9967 4.3249,-1.6331 6.4566,1.2666 12.6721,4.066 19.2665,3.5981 0.8153,-0.062 2.1697,-0.2096 2.5736,-0.7608 -2.8432,-3.3413 -7.4067,-4.3063 -11.4482,-5.4601 -8.3444,-2.2512 -17.1817,-3.2795 -24.8805,-7.4274 -1.7761,-0.9948 -3.297,-2.3854 -5.2393,-3.0885 -14.1453,-7.0048 -25.0633,-19.1301 -33.1262,-32.4677 -3.3848,-5.5388 -6.3474,-11.3325 -9.0451,-17.2155 -0.083,-0.2289 -0.4803,-1.0315 -0.5806,-1.2938 -0.7661,-1.6688 -1.4496,-3.3723 -2.199,-5.05 z m 64.1325,37.9428 c -1.2114,-0.036 -0.2387,1.4392 0.016,1.9192 2.0911,3.0938 5.5618,5.7672 9.4328,5.7672 1.4692,-0.025 2.8017,-0.9471 3.6307,-2.127 -2.1844,-2.626 -5.8507,-2.9573 -8.7304,-4.4613 -1.3961,-0.5418 -2.8504,-1.1046 -4.3548,-1.0981 z m -25.2509,28.0522 c -1.3669,0.091 -2.4352,1.3853 -2.338,2.8375 0.011,5.2752 2.3451,10.1806 3.9483,15.1176 1.1706,3.5364 2.724,7.1045 2.6439,10.889 -0.6094,3.671 1.1489,7.2174 2.7028,10.4464 1.4746,2.5659 2.9628,5.4786 5.6414,6.9536 0.8177,0.057 0.7049,-1.3229 0.8426,-1.8645 0.043,-2.3403 2.9097,-4.1756 5.0641,-2.9713 3.702,1.8425 6.1348,5.3835 8.953,8.2668 2.7796,2.8374 5.5094,6.3542 9.6722,7.0665 5.9963,2.0436 9.9223,7.4111 13.9205,12.0119 2.9065,3.2328 5.6363,7.1418 9.9177,8.611 1.2547,0.3551 2.642,0.2137 3.7976,-0.3718 -1.3838,-1.8659 -3.3569,-3.744 -3.4324,-6.2118 0.2387,-2.072 2.781,-1.9782 4.3243,-1.6301 6.4566,1.285 12.6548,4.0712 19.2622,3.6134 0.8125,-0.062 2.1544,-0.2262 2.5713,-0.7779 -2.854,-3.3338 -7.4191,-4.3046 -11.4428,-5.459 -8.3456,-2.2392 -17.1876,-3.2595 -24.8961,-7.408 -1.767,-1.0154 -3.2802,-2.387 -5.2273,-3.096 -14.1417,-7.0054 -25.0609,-19.1282 -33.1381,-32.4821 -3.3871,-5.535 -6.3319,-11.3107 -9.029,-17.2119 -0.211,-0.3521 -0.4524,-1.0034 -0.5789,-1.2927 -0.7832,-1.6573 -1.4704,-3.3533 -2.2078,-5.0307 h -0.3659 c -0.2066,-0.013 -0.4154,-0.013 -0.6056,0 v 0 z m 65.2369,38.0043 c -1.2232,-0.036 -0.2524,1.4377 0.011,1.9163 2.1128,3.0966 5.5605,5.7706 9.4382,5.7706 1.4757,-0.027 2.8117,-0.947 3.6448,-2.1323 -2.1959,-2.6284 -5.8525,-2.9376 -8.7333,-4.456 -1.3937,-0.5308 -2.8557,-1.1039 -4.3616,-1.0986 z m 39.4807,65.9911 c -1.2161,-0.036 -0.2476,1.4252 0.01,1.9192 2.0986,3.0946 5.5668,5.7631 9.4422,5.7631 1.4777,-0.025 2.8005,-0.9461 3.637,-2.1393 -2.1902,-2.6241 -5.8607,-2.9194 -8.7341,-4.4521 -1.3995,-0.5346 -2.8509,-1.1105 -4.358,-1.0909 z"
       style="opacity:1;fill:#ffffff;fill-opacity:1;fill-rule:nonzero;stroke:none;stroke-width:3.10694" />
  </g>
</svg>
